<?xml version="1.0" standalone="no"?>
<!DOCTYPE svg PUBLIC "-//W3C//DTD SVG 20010904//EN"
 "http://www.w3.org/TR/2001/REC-SVG-20010904/DTD/svg10.dtd">
<svg version="1.0" xmlns="http://www.w3.org/2000/svg"
 width="957.000000pt" height="960.000000pt" viewBox="0 0 957.000000 960.000000"
 preserveAspectRatio="xMidYMid meet">

<g transform="translate(0.000000,960.000000) scale(0.100000,-0.100000)"
fill="#000000" stroke="none">
<path d="M2847 9303 c4 -271 7 -302 25 -346 12 -26 18 -50 15 -53 -3 -4 -9 5
-12 19 -4 15 -14 32 -22 38 -8 7 -31 42 -53 79 -40 68 -154 200 -173 200 -7 0
-7 -4 1 -12 17 -17 15 -28 -6 -28 -18 0 -192 146 -192 161 0 5 10 3 23 -5 12
-7 36 -17 52 -21 17 -3 38 -14 48 -22 9 -9 17 -11 17 -5 0 9 -240 177 -272
190 -5 2 -8 -19 -8 -47 0 -55 -7 -47 126 -145 91 -67 268 -256 240 -256 -2 0
-34 16 -72 35 -37 19 -74 35 -81 35 -7 0 -13 5 -13 10 0 6 -8 10 -18 10 -10 0
-44 13 -75 29 -31 16 -57 27 -57 24 0 -3 6 -19 14 -36 8 -18 22 -56 32 -85 23
-66 30 -71 199 -153 28 -13 52 -27 53 -31 2 -5 10 -8 18 -8 8 0 14 -4 14 -9 0
-5 12 -14 28 -21 56 -23 70 -35 108 -89 l39 -56 2 -172 c2 -164 4 -173 27
-208 14 -20 30 -53 36 -73 15 -47 68 -181 80 -204 6 -10 10 -23 10 -30 0 -7 7
-26 16 -43 9 -16 26 -75 39 -130 13 -55 38 -154 56 -220 17 -66 33 -136 36
-155 l3 -35 -19 40 c-11 22 -54 123 -96 225 -42 102 -85 204 -96 228 -10 23
-19 48 -19 55 0 6 -9 31 -20 55 -16 35 -23 41 -36 34 -15 -8 -16 -70 -15 -703
1 -382 4 -912 6 -1179 3 -267 5 -1114 6 -1882 0 -1051 4 -1399 12 -1406 21
-17 253 -132 266 -132 10 0 12 171 7 865 -4 563 -2 865 4 865 7 0 10 190 9
533 0 292 0 636 1 762 0 267 -7 410 -22 438 -11 21 -14 609 -3 627 4 6 10 8
15 5 5 -3 13 3 19 12 9 16 12 16 21 3 5 -8 10 -23 10 -32 0 -10 7 -18 15 -18
14 0 16 21 14 151 0 83 1 153 4 156 3 3 10 -10 15 -29 10 -37 8 -2778 -3
-3879 l-7 -635 59 -19 c32 -11 63 -22 68 -26 18 -12 135 -42 142 -36 3 4 1 12
-4 19 -12 15 -10 434 2 461 4 9 2 38 -4 63 -8 32 -9 56 -1 83 7 26 7 55 0 91
-8 41 -7 56 2 61 9 6 7 13 -7 29 -12 14 -19 36 -19 69 -1 56 10 74 29 48 11
-15 14 -15 18 -3 4 9 2 18 -3 21 -6 4 -10 43 -10 88 -1 78 -1 81 -16 55 -18
-34 -24 -35 -24 -4 0 14 11 38 25 54 15 18 25 42 25 60 0 17 5 34 10 37 6 4
10 -6 10 -24 0 -36 16 -49 25 -21 4 12 11 20 17 18 10 -4 12 -313 3 -328 -4
-6 -6 -313 -3 -445 0 -16 -3 -130 -7 -252 -6 -200 -5 -223 9 -229 13 -5 16
-19 14 -68 l-1 -61 -6 48 c-10 78 -26 60 -29 -33 -2 -47 -7 -111 -11 -143 -5
-39 -4 -60 3 -65 6 -3 47 -11 91 -17 l80 -10 1 -89 2 -88 -90 4 c-74 3 -91 2
-97 -11 -5 -9 -12 -169 -16 -356 -3 -187 -10 -369 -14 -405 -5 -38 -5 -70 1
-77 7 -9 6 -261 -2 -373 0 -8 2 -30 6 -48 6 -29 9 -32 45 -32 32 0 39 -4 39
-19 0 -10 -7 -22 -16 -25 -11 -4 -14 -14 -9 -35 3 -16 6 -52 7 -80 0 -28 4
-54 9 -57 5 -3 9 -27 9 -55 l0 -49 -40 0 c-30 0 -40 -4 -40 -16 0 -14 10 -15
79 -9 l80 7 4 -34 c2 -18 5 39 7 127 2 88 4 192 5 230 2 39 5 156 9 260 3 105
9 246 13 315 7 118 8 121 14 60 3 -36 4 -103 2 -150 -2 -47 -8 -300 -13 -564
-6 -318 -13 -483 -20 -492 -8 -9 -8 -18 0 -33 11 -21 15 -21 605 -21 l594 0 4
58 3 57 2 -57 2 -58 2330 0 2330 0 0 1653 0 1654 -56 19 c-39 13 -57 15 -62 7
-4 -6 -28 -10 -55 -9 -32 1 -46 -3 -43 -11 3 -6 -3 -10 -12 -8 -9 1 -23 -2
-30 -8 -18 -14 -23 -5 -22 44 1 24 1 239 2 477 0 391 2 433 16 442 11 6 13 12
7 17 -6 5 -10 66 -10 148 0 77 -4 151 -8 165 -7 23 -7 23 5 5 23 -34 71 -76
78 -68 4 4 4 48 0 96 -6 77 -10 91 -34 116 l-28 29 6 363 c3 200 10 429 15
509 6 80 13 298 16 485 4 187 11 432 15 545 5 113 12 313 15 445 3 132 7 269
9 305 1 36 4 164 5 285 1 121 6 303 11 405 5 102 10 273 11 380 1 107 4 228 7
268 5 72 5 72 27 58 14 -9 27 -11 36 -5 8 5 29 9 47 9 l32 0 0 316 c0 303 -1
315 -19 309 -10 -3 -23 1 -30 9 -10 12 -7 15 19 21 56 12 33 28 -35 23 -36 -2
-65 -1 -65 3 0 4 -14 21 -30 39 -16 18 -30 38 -30 46 0 11 -26 14 -130 14
-121 0 -129 -1 -121 -17 41 -77 53 -310 25 -513 -11 -83 -23 -139 -29 -137
-11 4 -15 158 -14 469 1 169 0 177 -20 187 -17 10 -28 7 -60 -15 -40 -26 -61
-25 -61 1 0 7 12 16 28 18 15 2 -6 5 -45 6 l-73 1 0 -36 c0 -31 -2 -35 -15
-24 -8 7 -15 23 -15 36 0 15 -6 24 -15 24 -10 0 -15 -10 -15 -27 -4 -274 -21
-656 -30 -672 -6 -12 -17 -21 -25 -21 -8 0 -15 -4 -15 -10 0 -5 -8 -10 -18
-10 -11 0 -29 -9 -42 -20 -13 -11 -33 -20 -46 -20 -12 0 -24 -3 -26 -7 -3 -7
-93 -53 -103 -53 -3 0 -11 15 -19 33 -11 28 -14 -19 -21 -380 l-8 -413 -41 1
c-70 1 -141 14 -141 24 0 6 -9 9 -20 7 -11 -1 -77 -3 -147 -3 -106 0 -126 -3
-121 -15 3 -8 9 -14 15 -14 5 0 8 -10 6 -22 -3 -22 0 -23 69 -21 59 2 71 -1
66 -13 -4 -10 2 -14 21 -14 17 0 26 5 26 16 0 14 15 15 118 11 64 -3 116 -9
115 -14 -1 -4 7 -11 17 -15 18 -7 18 -31 13 -720 -3 -392 -9 -717 -14 -722 -5
-5 -56 -10 -113 -10 l-104 -1 5 -30 c2 -16 7 -37 10 -45 18 -53 76 -266 88
-324 8 -37 19 -136 25 -220 12 -184 26 -319 46 -451 12 -77 14 -139 9 -267
l-7 -168 -24 0 c-23 0 -31 -10 -17 -23 3 -4 12 -2 20 4 14 13 18 -1 4 -16 -5
-6 -21 -64 -37 -130 -31 -134 -43 -137 -25 -5 20 146 -12 258 -114 397 -41 58
-54 68 -156 119 -61 30 -113 53 -115 51 -7 -7 87 -87 101 -87 6 0 29 -16 51
-36 21 -19 51 -41 65 -49 25 -14 27 -18 31 -122 3 -81 9 -117 24 -143 15 -29
18 -54 17 -145 -2 -112 -19 -235 -33 -235 -4 0 -13 -13 -19 -30 -13 -38 -31
-39 -30 -2 1 39 14 69 23 54 15 -24 24 0 31 76 3 42 8 94 11 115 5 29 3 37
-10 37 -12 0 -16 -11 -17 -47 0 -27 -7 -64 -14 -83 l-13 -35 -2 40 c-3 50 -17
111 -19 78 -2 -44 -22 -36 -21 9 4 116 -32 358 -52 358 -5 0 -8 -48 -9 -107 0
-103 -26 -304 -41 -318 -4 -4 -6 71 -6 166 1 173 -8 246 -37 279 -7 8 -18 32
-26 53 -14 40 -33 48 -48 20 -5 -10 -12 -76 -15 -148 -20 -395 -27 -494 -37
-501 -5 -3 -9 43 -9 102 0 77 -4 112 -14 123 -8 9 -18 62 -25 126 -11 111 -39
221 -67 263 -8 12 -12 22 -9 22 3 0 1 9 -5 20 -6 11 -19 20 -30 20 -20 0 -23
7 -35 85 -4 22 -13 64 -21 93 -13 44 -19 52 -39 52 -37 0 -75 -21 -80 -44 -2
-12 -6 -82 -10 -156 -3 -74 -8 -150 -11 -168 -6 -31 -8 -33 -38 -27 -17 4 -41
17 -54 29 -36 35 -66 171 -83 381 -13 158 -23 211 -45 236 -14 16 -16 23 -6
26 8 3 4 12 -13 25 -16 13 -25 29 -25 48 0 16 -8 42 -17 59 -14 24 -23 29 -40
24 -19 -4 -23 -1 -23 16 0 12 7 24 15 27 8 4 12 10 9 15 -3 5 8 22 24 38 22
22 32 27 40 19 18 -18 25 -3 12 22 -8 15 -18 20 -31 17 -16 -4 -19 -1 -14 14
5 15 1 19 -17 21 -62 4 -75 6 -100 16 -21 9 -27 8 -32 -4 -3 -9 0 -22 8 -30
10 -10 16 -10 18 -2 2 6 10 8 16 4 17 -10 15 -26 -3 -26 -9 0 -26 -11 -39 -25
-28 -30 -30 -30 -68 -4 -19 14 -28 28 -25 39 4 15 -1 16 -42 9 -43 -6 -103
-21 -156 -36 -17 -5 -18 -4 -7 9 7 9 32 21 57 28 25 7 50 19 56 26 6 8 29 14
50 14 30 0 41 5 50 23 6 12 25 34 43 49 30 27 30 27 7 28 -14 0 -36 -14 -57
-37 -19 -20 -35 -34 -35 -30 -1 4 -2 11 -3 16 0 5 -4 12 -8 16 -3 3 2 29 12
58 11 30 16 64 13 84 -4 21 -2 33 6 33 15 0 14 39 -1 45 -9 4 -13 34 -13 101
0 53 -3 98 -6 100 -4 2 -17 -10 -30 -26 -13 -17 -37 -47 -54 -68 -30 -39 -117
-115 -160 -141 -36 -22 -43 -5 -9 21 44 34 134 120 134 128 0 4 18 26 39 49
l40 43 -15 41 c-17 48 -58 86 -93 87 -32 0 -111 38 -118 56 -3 8 -10 14 -15
14 -13 0 -138 92 -138 101 0 10 -60 28 -90 27 -14 -1 -72 4 -129 11 -58 7
-126 9 -152 6 -55 -8 -89 0 -89 20 0 17 33 24 130 30 41 2 84 6 95 8 11 3 64
1 117 -3 91 -7 101 -10 164 -50 37 -23 95 -50 129 -60 l62 -18 -3 22 c-31 220
-48 290 -70 282 -20 -8 -40 34 -47 97 -3 31 -17 81 -30 110 -14 28 -27 76 -29
105 -4 44 -3 52 12 52 26 0 42 -25 48 -75 2 -25 9 -48 13 -51 5 -3 9 -18 9
-34 0 -24 25 -87 61 -152 5 -10 9 -24 9 -32 0 -8 13 -43 28 -78 16 -34 37 -88
47 -118 10 -30 33 -77 52 -105 18 -27 36 -67 39 -87 4 -24 15 -43 30 -53 13
-8 24 -20 24 -27 0 -15 70 -211 80 -221 7 -8 122 -38 127 -33 1 1 -10 16 -25
32 -15 16 -33 41 -39 54 -7 14 -17 32 -22 40 -16 25 -51 152 -45 162 3 5 -1
17 -10 27 -14 15 -47 96 -77 186 -6 17 -14 53 -17 80 -7 49 -8 50 -40 47 -27
-3 -34 1 -42 23 -14 38 -12 71 5 85 12 10 27 0 91 -64 42 -42 80 -76 86 -76 5
0 7 40 4 98 -2 53 -5 110 -5 125 -1 16 -5 26 -11 22 -6 -3 -10 -48 -10 -101 0
-52 -4 -94 -8 -94 -4 0 -16 30 -25 66 l-18 67 22 23 c17 18 19 24 8 24 -8 0
-20 -5 -26 -11 -7 -7 -23 -9 -37 -5 -32 8 -38 56 -8 56 10 0 27 7 38 15 10 8
31 15 46 15 18 0 33 9 44 25 20 30 11 45 -13 23 -30 -26 -84 -50 -99 -44 -22
8 5 46 33 46 12 0 34 5 48 12 21 9 25 18 25 52 0 51 17 36 22 -18 2 -22 8 -41
13 -42 11 -4 75 127 75 151 0 27 -31 93 -46 99 -8 3 -33 -3 -55 -15 -57 -29
-69 -19 -22 19 36 28 42 39 53 97 7 36 16 68 21 71 5 3 9 18 9 33 0 15 8 45
19 67 17 37 17 49 5 192 -15 181 -46 291 -95 338 -17 16 -39 48 -49 71 -10 23
-35 59 -54 81 -20 22 -36 43 -36 48 0 4 -8 17 -19 28 -10 12 -28 50 -40 86
-20 59 -92 257 -111 305 -5 11 -11 28 -14 38 -4 14 -17 17 -73 17 l-68 0 -23
-49 c-12 -27 -22 -52 -22 -56 0 -4 -6 -21 -14 -38 -7 -18 -22 -59 -32 -92 -11
-33 -28 -69 -39 -81 -24 -24 -122 -47 -180 -42 l-40 3 -3 173 -2 172 -59 0
-59 0 -4 -202 c-3 -112 -8 -211 -12 -220 -5 -10 -19 -18 -31 -18 -13 0 -27 -4
-30 -10 -3 -5 -15 -10 -26 -10 -11 0 -22 -7 -25 -15 -3 -8 -15 -17 -25 -20
-11 -4 -31 -24 -45 -45 -16 -24 -31 -37 -40 -33 -8 3 -26 2 -40 -1 -26 -7 -26
-9 -22 -73 3 -50 0 -75 -14 -102 -10 -19 -21 -57 -24 -83 -4 -26 -9 -48 -13
-48 -6 0 -43 183 -57 278 -5 32 -11 42 -25 42 -22 0 -23 4 -7 30 10 16 7 47
-16 167 -15 81 -32 162 -37 178 -5 17 -17 75 -28 130 -31 157 -41 188 -63 213
-30 31 -66 29 -79 -5 -15 -40 -7 -73 122 -508 36 -119 47 -163 72 -271 8 -33
17 -66 21 -73 4 -6 16 -44 27 -84 11 -39 27 -83 36 -96 12 -19 14 -37 8 -80
-4 -31 -10 -78 -13 -106 l-7 -50 -55 -7 c-30 -3 -251 -10 -490 -14 -239 -4
-462 -8 -495 -9 -33 -1 -131 -2 -218 -3 -143 -2 -158 -4 -155 -19 2 -9 18 -21
38 -26 43 -12 22 -22 -26 -13 -19 4 -34 13 -34 21 0 7 -17 19 -37 26 -46 15
-344 4 -355 -14 -3 -6 -5 -27 -3 -46 1 -20 3 -45 4 -55 1 -18 8 -19 174 -12
564 21 1667 41 1667 29 0 -6 -12 -15 -27 -22 -38 -18 -16 -34 27 -19 85 28
198 72 231 89 28 14 44 16 70 9 19 -5 88 -14 154 -21 125 -12 145 -19 145 -50
0 -18 -7 -19 -82 -17 -48 2 -88 8 -96 15 -9 8 -47 12 -115 11 l-102 -1 76 -76
c79 -80 99 -117 99 -185 l-1 -41 -17 28 c-9 15 -20 27 -25 27 -14 0 -67 44
-67 56 0 6 -17 24 -37 40 -21 15 -43 35 -50 44 -7 8 -13 10 -13 4 0 -14 -50
-15 -50 -2 0 6 -11 7 -27 3 -16 -5 -56 -7 -90 -6 -59 2 -87 -10 -67 -29 5 -4
50 -10 101 -13 50 -3 100 -10 111 -16 12 -6 32 -41 47 -81 25 -66 28 -100 7
-100 -17 0 -54 63 -59 100 -5 37 -6 37 -47 36 -28 0 -49 -8 -66 -23 -19 -18
-37 -23 -77 -23 -28 0 -55 5 -58 10 -8 12 -52 13 -59 1 -10 -16 21 -31 94 -47
95 -19 120 -33 135 -75 7 -19 23 -58 36 -86 42 -97 0 -76 -46 22 -31 69 -48
80 -109 78 -36 -1 -45 1 -31 7 11 5 14 9 8 9 -19 1 -68 -32 -69 -46 -2 -30 -5
-33 -26 -32 -17 1 -19 2 -5 6 19 5 24 43 5 43 -7 0 -25 6 -40 14 -32 17 -40
12 -27 -21 9 -25 5 -43 -12 -43 -5 0 -9 14 -9 30 0 17 -4 30 -8 30 -5 0 -14
11 -22 24 -11 21 -15 23 -31 13 -11 -7 -19 -18 -19 -25 0 -7 -5 -10 -10 -7 -6
4 -22 -1 -36 -10 -15 -9 -34 -15 -44 -12 -11 3 -21 -2 -24 -10 -4 -9 -14 -13
-26 -10 -11 3 -23 1 -26 -4 -3 -6 -14 -7 -25 -4 -14 5 -19 2 -19 -14 0 -38
-22 -121 -30 -116 -20 13 3 -83 36 -147 21 -39 17 -44 -8 -12 -13 16 -29 34
-36 40 -8 6 -16 22 -17 36 -4 33 -27 77 -33 60 -2 -6 -15 -12 -28 -12 -26 0
-33 -24 -10 -33 8 -3 18 -23 21 -44 9 -54 25 -92 44 -103 14 -8 14 -9 -1 -10
-10 0 -18 4 -18 9 0 5 -10 11 -23 15 -13 3 -37 28 -57 60 -19 30 -38 52 -43
49 -7 -4 0 -143 9 -172 2 -7 0 -19 -6 -26 -13 -16 -30 -215 -30 -367 0 -94 -3
-127 -12 -125 -17 3 -30 -66 -42 -225 -4 -43 -12 -95 -20 -115 -8 -21 -17 -58
-20 -83 -11 -80 -34 -203 -50 -275 -9 -38 -16 -86 -16 -106 0 -22 -8 -45 -20
-59 -16 -18 -20 -20 -20 -7 0 10 4 17 8 17 5 0 16 62 26 138 9 75 19 148 22
162 19 94 32 178 69 453 39 283 39 284 51 530 3 70 4 127 1 127 -3 0 -14 -42
-26 -92 -21 -94 -38 -227 -47 -374 -3 -44 -11 -107 -17 -140 -12 -59 -12 -59
-49 -62 -40 -3 -52 -25 -21 -36 14 -6 15 -9 3 -16 -10 -6 -14 -33 -13 -112 1
-57 -1 -95 -4 -85 -5 19 -18 22 -28 7 -4 -6 -10 -8 -15 -5 -5 3 -12 1 -15 -5
-4 -6 -15 -8 -26 -5 -11 4 -19 2 -19 -4 0 -6 5 -11 10 -11 6 0 10 -7 10 -16 0
-8 -4 -13 -8 -10 -11 6 -52 -22 -52 -35 0 -6 -14 -39 -31 -74 -27 -56 -31 -76
-32 -155 -1 -49 -5 -90 -8 -90 -10 0 -21 69 -14 81 4 5 -3 18 -14 28 -12 10
-21 30 -21 44 0 20 -4 25 -16 20 -12 -4 -15 -1 -12 13 2 11 11 18 21 16 18 -3
23 13 7 23 -5 3 -6 13 -3 22 5 13 2 15 -11 10 -16 -6 -17 -3 -12 20 4 16 11
64 16 108 4 44 13 102 19 129 11 44 9 67 -4 54 -3 -2 -14 -51 -24 -109 -11
-57 -31 -167 -45 -244 -15 -77 -26 -149 -26 -161 0 -11 -11 -30 -23 -43 -14
-12 -25 -36 -27 -54 -5 -54 -5 -116 0 -119 3 -2 198 -1 434 2 l430 5 -3 65
c-1 35 -5 68 -8 73 -3 4 -16 1 -30 -8 l-24 -16 3 43 c2 28 7 42 16 41 6 -2 12
2 12 8 0 6 6 9 14 6 8 -3 17 1 20 9 3 8 -1 17 -9 20 -10 4 -15 21 -15 51 0 27
4 42 10 38 6 -4 10 16 9 52 0 32 -3 52 -6 45 -2 -6 -9 -9 -14 -6 -6 3 -5 12 2
21 7 8 12 36 10 66 -2 39 2 57 16 72 14 15 18 33 16 78 -2 31 1 57 5 57 5 0
14 31 21 70 7 38 17 72 22 76 5 3 9 18 9 34 0 30 17 50 24 28 2 -7 7 -29 10
-48 5 -31 4 -33 -8 -17 -15 19 -15 18 -31 -113 -15 -131 -25 -180 -41 -212
-10 -19 -11 -29 -3 -34 6 -3 17 -20 24 -37 11 -26 11 -33 -1 -42 -7 -5 -14
-29 -16 -52 -1 -34 4 -47 30 -77 18 -20 32 -42 32 -47 0 -6 11 -24 25 -41 26
-31 32 -62 14 -74 -15 -9 -4 -73 27 -151 28 -71 28 -104 -1 -58 -11 17 -32 46
-47 65 -16 19 -33 40 -38 46 -5 7 -6 15 -3 18 4 3 1 6 -6 6 -16 0 -6 -34 24
-81 37 -57 44 -103 47 -279 3 -143 1 -169 -15 -197 -26 -48 -34 -40 -26 25 7
66 4 74 -17 44 -36 -52 -39 -30 -21 208 2 36 5 35 -88 56 l-30 7 30 13 c28 12
28 13 6 14 -15 0 -21 5 -18 13 3 8 1 20 -3 28 -11 16 5 29 38 29 12 0 22 4 22
9 0 17 -132 21 -648 21 l-523 1 -54 114 c-30 62 -55 118 -55 123 0 5 -19 42
-42 83 l-43 74 0 393 c0 217 3 396 8 399 4 2 7 -5 7 -15 0 -13 10 -24 30 -31
17 -5 30 -15 30 -20 0 -23 69 -86 119 -108 55 -24 66 -24 134 5 26 11 37 22
37 37 0 11 7 31 16 43 10 14 13 32 10 45 -4 12 -11 62 -15 111 -5 52 -13 91
-21 96 -8 5 -9 9 -1 14 17 11 28 -1 34 -36 3 -18 8 -42 10 -53 3 -11 6 -44 6
-72 l1 -53 200 0 c163 0 200 3 200 14 0 7 11 34 25 58 26 47 78 188 90 248 4
19 18 56 31 82 13 26 24 53 24 59 0 20 101 219 111 219 5 0 9 6 9 14 0 16 91
108 122 123 13 6 59 28 103 48 148 69 157 66 -195 60 -173 -4 -362 -8 -420
-10 -58 -1 -198 -3 -312 -4 l-208 -1 -15 -32 c-13 -30 -14 -30 -13 -8 3 36
-51 90 -90 90 -17 0 -34 -4 -37 -10 -20 -33 -25 10 -25 240 0 204 3 250 14
250 10 0 12 -12 8 -50 -6 -61 -9 -61 160 -21 210 48 230 52 459 75 331 33 828
-2 1102 -78 139 -39 72 4 -93 59 -195 64 -229 74 -305 90 -44 10 -93 22 -110
27 -59 18 -303 47 -450 53 -233 11 -634 -27 -710 -67 -14 -8 -20 -7 -23 2 -3
7 -13 20 -23 28 -28 25 -23 35 16 30 40 -5 40 -6 20 32 -9 17 -12 31 -8 32 5
0 13 2 18 3 6 2 18 3 28 4 16 1 17 21 17 264 0 144 3 272 6 284 6 21 13 22 98
25 l91 3 0 55 0 55 -135 -4 c-74 -2 -138 -5 -142 -8 -5 -2 -8 -35 -8 -73 0
-60 2 -69 16 -63 13 5 15 2 9 -15 -3 -12 -7 -36 -7 -52 -1 -37 -18 -52 -18
-16 0 14 -4 28 -10 31 -5 3 -10 1 -10 -4 0 -6 -5 -11 -11 -11 -7 0 -8 4 -2 13
5 6 10 166 12 355 l3 342 -96 0 -96 0 -1 -197 c0 -109 -1 -238 -2 -288 0 -49
3 -124 8 -166 5 -54 4 -78 -4 -83 -17 -11 -14 -86 3 -86 9 0 12 7 9 18 -2 10
3 24 12 32 14 12 20 10 43 -13 l26 -27 -21 -20 c-21 -19 -23 -19 -32 -2 -8 13
-11 4 -12 -38 -1 -50 -2 -53 -12 -27 -6 15 -14 27 -17 27 -9 0 -21 -130 -14
-141 3 -5 21 -9 41 -9 40 0 113 -19 113 -30 0 -15 38 -50 54 -50 9 0 16 -4 16
-10 0 -5 -7 -10 -15 -10 -8 0 -15 -7 -15 -15 0 -21 -19 -19 -26 3 -17 57 -38
82 -76 93 -22 5 -51 9 -65 7 l-26 -3 -3 -370 c-1 -203 -4 -458 -5 -565 -1
-107 1 -204 5 -215 4 -11 11 -29 16 -40 4 -11 14 -40 21 -65 7 -25 19 -54 26
-65 27 -41 3 -47 -56 -15 l-36 21 1 457 c1 251 4 780 8 1175 l7 717 -30 0 -30
0 2 -1165 c2 -967 0 -1164 -11 -1160 -8 3 -14 5 -15 5 -1 0 -1 522 1 1160 l3
1160 -146 0 -145 0 3 -1017 c2 -560 7 -1034 12 -1053 4 -19 5 -32 1 -29 -4 4
-8 15 -11 27 -2 11 -10 33 -19 50 -13 26 -16 115 -17 668 -1 352 -4 800 -7
997 l-5 357 -188 0 -188 0 6 -297z m6098 179 c-6 -5 -22 -13 -37 -20 -25 -10
-28 -10 -28 8 0 16 7 20 37 20 20 0 33 -4 28 -8z m555 -24 c0 -7 -4 -19 -9
-27 -8 -12 -12 -12 -25 -2 -24 20 -19 41 9 41 14 0 25 -6 25 -12z m-4011 -196
c14 -26 29 -119 21 -132 -20 -33 -70 56 -70 127 0 28 34 32 49 5z m3983 -88
c-4 -33 -7 -38 -20 -30 -13 8 -2 68 12 63 6 -2 10 -17 8 -33z m-6827 6 c3 -5
1 -10 -4 -10 -6 0 -11 5 -11 10 0 6 2 10 4 10 3 0 8 -4 11 -10z m4035 -145
c-12 -15 -30 -12 -30 6 0 5 10 9 21 9 18 0 19 -2 9 -15z m2750 -78 c0 -15 7
-30 15 -33 18 -7 20 -25 3 -21 -20 3 -37 39 -37 77 -1 26 2 31 9 20 5 -8 10
-28 10 -43z m-5620 17 c0 -8 -8 -15 -17 -15 -17 -1 -17 -2 0 -6 10 -3 17 -14
17 -30 0 -19 -4 -24 -16 -19 -9 3 -22 6 -30 6 -8 0 -14 5 -14 10 0 6 10 10 23
10 17 0 19 2 8 9 -12 8 -13 14 -3 36 12 26 32 26 32 -1z m2830 4 c0 -13 11
-54 25 -93 13 -38 25 -76 25 -83 0 -15 -48 -5 -68 15 -8 8 -22 11 -32 8 -30
-9 -32 9 -9 82 12 37 23 74 25 81 6 22 34 13 34 -10z m34 1 c-3 -5 -10 -7 -15
-3 -5 3 -7 10 -3 15 3 5 10 7 15 3 5 -3 7 -10 3 -15z m-1124 -45 c0 -8 -4 -14
-10 -14 -5 0 -10 9 -10 21 0 11 5 17 10 14 6 -3 10 -13 10 -21z m-1812 -33 c9
-5 29 -14 44 -20 19 -7 26 -15 22 -26 -4 -9 0 -15 9 -15 26 0 29 -18 5 -39
-28 -27 -34 -26 -42 2 -3 12 -26 37 -51 55 -25 18 -45 37 -45 42 0 12 35 13
58 1z m-815 -48 c7 -39 1 -40 -11 -4 -6 17 -7 31 -3 31 5 0 11 -12 14 -27z
m917 17 c0 -5 -5 -10 -11 -10 -5 0 -7 5 -4 10 3 6 8 10 11 10 2 0 4 -4 4 -10z
m2670 -9 c0 -5 -9 -11 -20 -14 -13 -3 -20 0 -20 9 0 8 9 14 20 14 11 0 20 -4
20 -9z m296 -66 c8 -42 0 -65 -22 -65 -14 0 -16 7 -10 38 3 20 6 43 6 50 0 27
19 10 26 -23z m-3856 -5 c0 -5 -2 -10 -4 -10 -3 0 -8 5 -11 10 -3 6 -1 10 4
10 6 0 11 -4 11 -10z m890 -9 c0 -15 -38 -56 -45 -49 -8 8 23 58 36 58 5 0 9
-4 9 -9z m5345 -201 c-2 -36 -7 -101 -9 -145 -3 -44 -7 -119 -9 -167 -5 -85
-23 -158 -39 -158 -9 0 -3 144 6 159 3 4 8 86 10 182 6 180 8 207 22 274 l8
40 8 -60 c4 -33 6 -89 3 -125z m-5289 135 c16 -40 19 -91 4 -100 -15 -10 -12
-20 15 -50 25 -26 25 -28 8 -41 -10 -7 -23 -14 -29 -14 -18 0 -34 43 -33 90 0
25 0 64 -1 88 -2 69 13 81 36 27z m-46 -101 c0 -8 -4 -12 -10 -9 -5 3 -10 10
-10 16 0 5 5 9 10 9 6 0 10 -7 10 -16z m-950 -118 c0 -26 -6 -18 -14 19 -5 22
-4 26 4 15 5 -8 10 -24 10 -34z m826 -100 c-9 -18 -22 -39 -31 -46 -8 -7 -15
-19 -15 -27 0 -8 -4 -12 -8 -9 -16 9 -6 43 21 76 15 17 27 42 27 54 0 33 14
42 18 11 2 -15 -4 -41 -12 -59z m-652 9 c3 -8 1 -15 -4 -15 -6 0 -10 7 -10 15
0 8 2 15 4 15 2 0 6 -7 10 -15z m3806 -42 c0 -19 -3 -24 -10 -17 -6 6 -8 18
-4 27 9 24 14 21 14 -10z m-60 -93 c0 -11 -4 -20 -9 -20 -5 0 -7 9 -4 20 3 11
7 20 9 20 2 0 4 -9 4 -20z m2227 -77 c-4 -17 -4 -17 -12 0 -4 9 -4 25 0 35 8
16 8 16 12 0 3 -10 3 -26 0 -35z m-5930 -5 c-3 -8 -6 -5 -6 6 -1 11 2 17 5 13
3 -3 4 -12 1 -19z m6003 -198 c0 -44 -8 -70 -21 -70 -10 0 -12 63 -3 97 9 34
24 17 24 -27z m-2333 -139 c6 -9 15 -27 18 -40 3 -13 17 -38 31 -56 22 -29 31
-55 20 -55 -22 0 -57 23 -53 34 7 17 -16 44 -56 70 -16 9 -26 20 -23 23 3 3
-9 13 -26 22 -40 20 -44 33 -16 46 18 8 31 6 58 -8 19 -11 40 -26 47 -36z
m-247 -71 c0 -6 -10 -5 -25 2 -13 6 -22 15 -19 19 6 11 44 -8 44 -21z m2540
-42 c0 -51 -3 -68 -10 -58 -11 17 -13 73 -4 108 11 38 14 25 14 -50z m-5283
-23 c-4 -8 -11 -15 -17 -15 -7 0 -7 6 0 21 13 23 26 19 17 -6z m5210 -22 c-3
-10 -5 -2 -5 17 0 19 2 27 5 18 2 -10 2 -26 0 -35z m-2240 29 c15 -5 20 -11
15 -19 -6 -10 -22 -10 -67 -2 -128 23 -135 27 -50 27 44 0 90 -3 102 -6z
m-477 -68 c0 -42 -2 -45 -22 -39 -13 4 -31 9 -41 12 -10 2 -29 -3 -43 -12 -14
-9 -28 -15 -30 -12 -7 6 7 37 16 37 5 0 24 14 42 30 18 17 43 30 55 30 21 0
23 -5 23 -46z m619 22 c-21 -22 -25 -23 -30 -8 -9 24 -2 32 28 32 l25 0 -23
-24z m-37 -88 c4 -66 -6 -103 -24 -92 -5 4 -21 -6 -35 -22 -24 -29 -24 -29
-17 -4 3 14 17 36 30 51 13 14 24 34 24 45 0 16 -2 17 -10 4 -7 -11 -10 -6
-10 21 0 32 14 59 31 59 4 0 9 -28 11 -62z m-75 -4 c-7 -67 -26 -99 -64 -107
-15 -3 -36 -9 -45 -12 -12 -5 -18 -2 -18 8 0 8 -6 20 -14 26 -8 6 -16 21 -19
32 -4 15 4 24 41 43 26 13 62 27 80 31 18 3 32 13 32 21 0 8 3 14 6 14 4 0 4
-25 1 -56z m2210 24 c-3 -8 -6 -5 -6 6 -1 11 2 17 5 13 3 -3 4 -12 1 -19z
m-5037 -68 c0 -11 -7 -23 -15 -27 -21 -8 -24 -2 -14 25 10 28 29 29 29 2z
m2120 -30 c0 -27 -4 -50 -9 -50 -15 0 -23 70 -10 86 17 21 19 18 19 -36z
m-1947 -9 c37 -31 37 -53 2 -157 -36 -106 -59 -155 -93 -198 l-21 -27 -25 44
c-14 24 -26 55 -25 68 l1 24 7 -25 c6 -19 14 -25 32 -23 13 1 19 -1 12 -3 -7
-3 -9 -12 -6 -20 3 -9 14 4 30 38 16 35 20 54 13 56 -7 3 -4 9 7 17 10 7 34
43 52 80 l34 66 -25 27 c-13 15 -30 35 -37 45 -12 15 -12 17 5 10 10 -4 27
-14 37 -22z m1705 -67 c-3 -16 -7 -13 -21 13 -23 43 -21 52 4 26 12 -11 19
-29 17 -39z m1068 29 c-10 -10 -19 5 -10 18 6 11 8 11 12 0 2 -7 1 -15 -2 -18z
m-3629 -5 c-3 -8 -6 -5 -6 6 -1 11 2 17 5 13 3 -3 4 -12 1 -19z m2913 -38 c18
0 30 -5 30 -13 0 -9 10 -12 30 -9 19 3 30 0 30 -7 0 -16 89 -101 117 -112 13
-5 23 -16 23 -24 0 -9 5 -13 10 -10 12 8 13 -8 1 -20 -5 -6 -11 -19 -13 -29
-2 -12 -13 -21 -29 -23 -25 -3 -27 -1 -27 32 0 27 4 35 14 31 8 -3 14 -1 14 4
0 6 -6 10 -13 10 -7 0 -25 11 -40 25 -33 31 -34 24 -6 -22 19 -31 20 -39 9
-73 -7 -21 -22 -50 -34 -64 -18 -23 -28 -27 -71 -26 -71 0 -99 6 -145 27 -37
17 -52 33 -30 33 6 0 10 9 10 20 0 11 -6 20 -14 20 -15 0 -14 59 2 100 16 42
37 53 87 48 l45 -6 -1 37 c0 33 -1 34 -11 14 -6 -12 -17 -24 -25 -27 -9 -4
-11 -2 -7 6 5 8 2 9 -10 5 -10 -4 -29 -10 -42 -13 -20 -5 -23 -3 -18 10 4 10
12 15 18 13 7 -3 20 1 29 8 15 11 16 13 2 19 -8 3 -15 15 -15 27 0 20 1 21 25
5 13 -9 38 -16 55 -16z m-2890 1 c0 -32 33 -61 85 -76 31 -9 37 -13 16 -10
-18 3 -47 5 -62 5 -22 0 -32 6 -39 25 -19 49 -22 75 -11 75 6 0 11 -9 11 -19z
m2410 -31 c6 -11 8 -20 6 -20 -3 0 -10 9 -16 20 -6 11 -8 20 -6 20 3 0 10 -9
16 -20z m763 0 c-3 -12 -8 -19 -11 -16 -5 6 5 36 12 36 2 0 2 -9 -1 -20z m21
-65 c5 -43 4 -48 -8 -35 -19 19 -34 76 -17 66 6 -4 11 0 11 10 0 31 7 10 14
-41z m-3027 -1 c-3 -3 -12 -4 -19 -1 -8 3 -5 6 6 6 11 1 17 -2 13 -5z m3383
-74 c0 -5 -4 -10 -10 -10 -5 0 -10 5 -10 10 0 6 5 10 10 10 6 0 10 -4 10 -10z
m-931 -70 c-1 -65 -17 -99 -18 -38 -1 48 -17 71 -32 47 -6 -10 -9 -11 -9 -1 0
19 -38 14 -42 -5 -3 -16 -6 -15 -16 5 -7 12 -11 26 -8 30 3 5 32 8 65 8 l61
-1 -1 -45z m-2541 34 c12 -4 22 -14 22 -23 0 -14 -2 -14 -10 -1 -18 28 -23 -1
-10 -55 19 -79 6 -78 -19 1 -29 91 -29 90 17 78z m97 -41 c16 -5 25 -12 19
-15 -13 -9 -74 18 -74 33 0 8 4 8 13 2 6 -6 25 -15 42 -20z m3272 -5 c-3 -7
-5 -2 -5 12 0 14 2 19 5 13 2 -7 2 -19 0 -25z m-261 -21 c19 -11 18 -47 -1
-47 -9 0 -12 6 -9 15 7 18 -7 20 -24 3 -16 -16 -16 25 0 55 12 21 12 21 16 2
2 -11 10 -24 18 -28z m-2921 -14 c11 -7 27 -13 37 -13 14 0 18 -9 19 -42 2
-95 -3 -164 -12 -172 -9 -11 -15 48 -10 118 3 51 -6 86 -24 86 -12 0 -15 -24
-17 -127 -2 -74 -7 -128 -13 -130 -7 -2 -10 46 -9 134 1 113 -1 141 -14 156
-15 17 -14 17 4 11 10 -4 28 -13 39 -21z m2275 18 c0 -17 -18 -21 -24 -6 -3 9
0 15 9 15 8 0 15 -4 15 -9z m540 -37 c0 -14 -6 -34 -12 -47 -7 -12 -14 -23
-15 -25 -1 -2 -10 1 -21 7 -15 8 -21 7 -25 -4 -5 -11 -11 -11 -31 -2 -31 14
-34 27 -6 27 32 0 100 43 100 63 0 5 -7 7 -15 3 -15 -5 -20 5 -8 17 11 12 33
-14 33 -39z m189 -23 c1 -35 -5 -22 -12 24 -5 28 -4 34 3 20 5 -11 9 -31 9
-44z m-2665 -72 c1 -54 -3 -73 -13 -77 -11 -4 -13 2 -8 26 9 42 -7 48 -40 17
-28 -27 -187 -125 -202 -125 -14 0 -55 -50 -47 -57 4 -5 14 1 22 11 7 11 17
16 21 12 4 -4 -3 -16 -17 -26 -14 -11 -19 -20 -12 -20 14 0 93 49 104 65 4 5
11 6 15 1 4 -4 -1 -15 -12 -23 -49 -35 -176 -113 -185 -113 -6 0 -20 -6 -31
-12 -18 -11 -23 -10 -40 11 -10 13 -19 38 -19 56 0 18 -3 42 -6 52 -4 13 -1
12 14 -6 21 -26 52 -24 52 3 0 15 -50 56 -68 56 -5 0 -12 21 -15 48 -2 26 -8
56 -12 67 -7 20 -6 20 9 1 9 -11 16 -32 16 -46 0 -18 12 -38 38 -61 22 -19 41
-40 43 -47 5 -15 47 5 159 76 184 115 206 137 190 192 -6 19 -10 36 -10 38 0
1 12 -8 26 -22 24 -22 27 -32 28 -97z m5058 59 c-4 -18 -6 -19 -14 -4 -12 22
-1 57 11 37 5 -7 6 -22 3 -33z m-2980 -2 c-2 -20 2 -26 16 -26 25 0 34 10 22
25 -20 24 38 28 67 5 14 -11 35 -21 47 -21 15 -1 13 -3 -9 -9 -25 -6 -26 -8
-7 -9 35 -2 16 -21 -21 -21 -24 0 -28 3 -17 10 13 8 13 10 -2 10 -9 0 -22 -13
-30 -30 -7 -16 -16 -30 -20 -30 -5 0 -8 -9 -8 -21 0 -15 -5 -20 -22 -17 -24 3
-28 23 -5 23 6 0 12 11 12 25 0 18 -5 25 -17 24 -20 -2 -20 -4 -23 54 -2 29 0
42 8 39 7 -2 11 -16 9 -31z m-65 -18 c-3 -8 -6 -5 -6 6 -1 11 2 17 5 13 3 -3
4 -12 1 -19z m-2507 -24 c0 -8 -4 -12 -10 -9 -5 3 -10 13 -10 21 0 8 5 12 10
9 6 -3 10 -13 10 -21z m2760 1 c-7 -9 -15 -13 -17 -11 -7 7 7 26 19 26 6 0 6
-6 -2 -15z m-1223 -17 c-3 -8 -6 -5 -6 6 -1 11 2 17 5 13 3 -3 4 -12 1 -19z
m897 -65 c-2 -101 -37 -238 -89 -348 -14 -29 -15 -29 -15 -5 0 14 6 37 14 51
7 14 16 54 20 90 4 35 11 78 16 94 6 17 11 59 13 94 l3 64 -53 -59 c-47 -52
-53 -56 -53 -33 0 27 25 69 42 69 6 0 28 16 49 35 22 19 43 35 47 35 4 0 7
-39 6 -87z m-294 7 c0 -5 -7 -13 -15 -17 -21 -12 -81 -104 -89 -137 -5 -21
-12 -26 -36 -26 -17 0 -30 -4 -30 -10 0 -5 -6 -10 -13 -10 -8 0 -19 -11 -25
-25 -11 -24 -10 -25 8 -15 11 6 20 7 19 3 -1 -4 1 -16 5 -25 4 -9 -2 -49 -13
-90 -12 -41 -21 -86 -21 -101 0 -49 -16 -28 -33 44 -15 63 -16 77 -3 137 8 37
17 83 21 103 5 35 24 54 104 104 45 28 77 51 89 62 16 15 32 17 32 3z m130
-25 c-7 -8 -23 -15 -35 -15 -21 0 -22 -4 -20 -52 1 -29 5 -65 10 -81 6 -23 5
-26 -9 -21 -9 3 -16 18 -16 33 0 19 -3 22 -9 12 -7 -11 -10 -9 -13 10 -2 15
-9 24 -20 23 -14 -1 -15 2 -8 16 6 11 10 28 10 39 0 25 43 50 89 51 29 0 32
-2 21 -15z m-1860 -10 c-7 -8 -17 -15 -22 -15 -6 0 -5 7 2 15 7 8 17 15 22 15
6 0 5 -7 -2 -15z m20 -25 c-14 -11 -29 -20 -34 -20 -6 0 -20 -10 -33 -22 -13
-12 -23 -17 -23 -11 0 14 31 39 58 47 12 4 22 12 22 17 0 5 8 9 18 9 14 0 12
-4 -8 -20z m2253 13 c-7 -2 -21 -2 -30 0 -10 3 -4 5 12 5 17 0 24 -2 18 -5z
m-174 -83 c0 -23 -1 -23 -9 -5 -5 11 -9 29 -9 40 -1 17 1 17 9 5 5 -8 9 -26 9
-40z m-225 -59 c-2 -2 -4 3 -4 12 0 10 -4 17 -10 17 -12 0 -14 53 -2 64 4 4
10 -14 14 -40 4 -27 5 -50 2 -53z m-2736 57 c8 -8 15 -8 26 1 18 15 38 6 34
-17 -2 -13 3 -16 25 -14 15 2 27 -1 27 -8 0 -6 7 -18 15 -26 11 -11 15 -38 15
-95 l0 -79 -27 6 c-16 4 -34 11 -41 17 -11 9 -12 4 -7 -26 4 -20 3 -37 -1 -37
-25 1 -89 30 -101 46 -14 19 -19 224 -6 237 10 10 28 8 41 -5z m3092 -19 c0
-11 -4 -18 -10 -14 -5 3 -7 12 -3 20 7 21 13 19 13 -6z m117 -54 c13 3 23 1
23 -4 0 -15 -30 -22 -65 -15 -24 4 -34 12 -38 30 -6 35 3 37 31 8 19 -18 33
-24 49 -19z m111 12 c3 -13 -4 -17 -25 -16 -15 0 -22 3 -15 6 6 2 12 11 12 20
0 20 24 11 28 -10z m-668 -17 c0 -5 -4 -10 -10 -10 -5 0 -10 5 -10 10 0 6 5
10 10 10 6 0 10 -4 10 -10z m450 -14 c0 -26 -24 -51 -40 -41 -15 9 -12 26 7
47 22 25 33 23 33 -6z m-2440 -36 c0 -11 -4 -20 -10 -20 -5 0 -10 9 -10 20 0
11 5 20 10 20 6 0 10 -9 10 -20z m1780 10 c0 -5 -4 -10 -10 -10 -5 0 -10 5
-10 10 0 6 5 10 10 10 6 0 10 -4 10 -10z m707 4 c-3 -3 -12 -4 -19 -1 -8 3 -5
6 6 6 11 1 17 -2 13 -5z m-2547 -86 c0 -10 11 -42 25 -71 l26 -52 -1 -465 c0
-256 -4 -494 -7 -530 -15 -146 -19 5 -15 501 2 326 0 519 -6 523 -22 13 -35
-23 -24 -66 6 -23 9 -45 6 -50 -3 -4 -5 -126 -6 -270 -1 -145 -5 -274 -9 -288
-7 -25 -14 194 -14 460 0 109 -4 145 -19 188 -11 28 -23 52 -27 52 -4 0 -10
13 -14 29 -3 16 -13 35 -21 41 -15 13 -9 34 7 24 5 -3 15 -1 22 4 35 28 77 12
77 -30z m2434 10 c-4 -5 -15 -8 -25 -5 -14 4 -19 0 -19 -16 -1 -20 -1 -21 -11
-4 -8 14 -6 24 6 43 16 24 17 25 36 9 10 -10 16 -22 13 -27z m643 14 c78 -6
107 -12 125 -27 34 -30 47 -48 48 -67 0 -26 -18 -31 -46 -13 -14 9 -55 22 -92
30 -68 14 -93 20 -240 57 -160 41 -110 46 205 20z m-805 -94 c-7 -7 -12 -8
-12 -2 0 14 12 26 19 19 2 -3 -1 -11 -7 -17z m278 -24 c0 -2 -11 -4 -25 -4
-14 0 -25 4 -25 9 0 4 11 6 25 3 14 -2 25 -6 25 -8z m-3114 -19 c16 -8 37 -15
47 -15 18 0 23 -15 8 -24 -10 -6 -69 12 -88 27 -7 5 -10 13 -7 18 7 12 7 12
40 -6z m509 -177 c12 -269 3 -2361 -11 -2440 -3 -21 -9 -38 -13 -38 -20 0 -29
44 -25 131 2 52 8 562 13 1134 13 1284 14 1365 23 1365 4 0 10 -69 13 -152z
m3159 129 c9 -14 7 -21 -7 -32 -16 -11 -21 -11 -38 3 -22 19 -25 38 -6 45 20
9 39 3 51 -16z m-1297 -54 c-12 -11 -47 -10 -47 1 0 9 9 12 25 8 14 -2 24 -6
22 -9z m-47 -88 c-9 -10 -11 -32 -7 -65 6 -52 -8 -71 -15 -21 -7 49 3 101 19
101 13 0 13 -3 3 -15z m-2356 -29 c28 -13 77 -36 108 -51 l58 -27 2 -815 c2
-448 1 -835 -1 -859 -4 -53 -6 -53 -115 -20 -43 14 -84 22 -91 20 -6 -3 -16 1
-22 8 -7 9 -13 317 -17 891 -7 991 -16 897 78 853z m1806 -26 c0 -12 -29 -20
-35 -10 -9 15 4 30 20 23 8 -3 15 -9 15 -13z m-10 -44 c0 -8 -4 -18 -10 -21
-5 -3 -10 3 -10 14 0 12 5 21 10 21 6 0 10 -6 10 -14z m557 -98 c-2 -13 -4 -3
-4 22 0 25 2 35 4 23 2 -13 2 -33 0 -45z m-577 38 c0 -2 -7 -6 -15 -10 -8 -3
-15 -1 -15 4 0 6 7 10 15 10 8 0 15 -2 15 -4z m-51 -27 c-9 -17 -13 -19 -20
-8 -14 22 -11 29 11 29 18 0 19 -3 9 -21z m-59 -69 c0 -5 -2 -10 -4 -10 -3 0
-8 5 -11 10 -3 6 -1 10 4 10 6 0 11 -4 11 -10z m46 -21 c10 -17 -13 -36 -27
-22 -12 12 -4 33 11 33 5 0 12 -5 16 -11z m1909 -49 c3 -5 -1 -10 -9 -10 -9 0
-16 5 -16 10 0 6 4 10 9 10 6 0 13 -4 16 -10z m-1922 -37 c-3 -21 -10 -40 -15
-41 -4 -2 -5 -8 -2 -13 3 -6 0 -24 -7 -41 -10 -24 -10 -33 -1 -36 18 -6 14
-27 -8 -47 -20 -18 -20 -17 -20 37 0 30 3 83 6 117 6 55 9 61 30 61 21 0 22
-3 17 -37z m-825 -61 c7 -15 33 -74 58 -132 25 -58 50 -115 56 -127 15 -31 8
-36 -59 -37 -57 -1 -58 -2 -61 -31 -2 -16 -7 -34 -11 -38 -4 -4 -7 82 -7 193
1 110 3 200 6 200 3 0 11 -12 18 -28z m1289 -14 c-3 -7 -5 -2 -5 12 0 14 2 19
5 13 2 -7 2 -19 0 -25z m778 -134 c5 -37 9 -42 38 -49 l32 -7 -32 -9 c-38 -11
-44 -29 -10 -29 13 0 32 -9 42 -20 17 -18 17 -20 2 -14 -9 3 -17 2 -17 -4 0
-18 34 -24 46 -8 15 22 31 20 37 -4 3 -12 14 -20 26 -20 20 0 20 -1 4 -20 -10
-11 -23 -20 -30 -20 -7 0 -13 -4 -13 -10 0 -10 19 -6 58 13 29 14 57 -7 32
-24 -11 -8 -9 -9 9 -4 14 4 21 3 18 -2 -6 -10 44 -53 61 -53 5 0 15 -7 22 -15
10 -13 9 -15 -11 -15 -37 -1 -3 -16 54 -24 75 -11 58 -29 -23 -24 -69 4 -70 3
-48 -14 22 -17 36 -21 88 -23 19 0 26 -8 31 -30 l7 -30 1 30 c2 33 21 65 40
65 7 0 6 -9 -5 -25 -20 -31 -12 -84 16 -110 20 -19 45 -11 36 11 -3 8 -1 14 4
14 6 0 10 -7 10 -15 0 -17 117 -135 133 -135 5 0 36 -18 68 -40 32 -22 63 -40
68 -40 11 0 71 -67 71 -79 0 -17 -76 -7 -111 15 -19 12 -44 23 -55 26 -14 2
-19 12 -20 35 0 38 -14 58 -14 22 0 -45 -12 -51 -58 -29 -22 11 -49 20 -59 20
-22 0 -83 36 -83 49 0 5 12 11 28 13 18 2 4 8 -43 16 -80 15 -131 37 -160 69
-11 13 -25 23 -30 23 -17 0 -105 65 -105 78 0 6 -5 12 -11 12 -6 0 -17 7 -25
15 -9 8 -24 15 -35 15 -11 0 -24 11 -31 25 -8 18 -14 22 -19 13 -13 -20 -22
-1 -27 56 -3 40 0 60 13 80 14 22 16 32 7 51 -7 14 -15 25 -20 25 -4 0 -18
-80 -30 -177 -34 -264 -50 -369 -68 -460 -19 -91 -36 -115 -22 -30 5 28 13 90
18 137 6 47 13 101 17 120 4 19 7 63 7 98 1 34 4 62 7 62 3 0 4 14 1 31 -6 40
-25 22 -24 -22 0 -18 -6 -52 -15 -77 -14 -43 -14 -47 3 -59 17 -12 17 -14 1
-30 -11 -11 -17 -13 -17 -5 0 7 -4 12 -8 12 -4 0 -7 -25 -6 -55 1 -30 -2 -55
-7 -55 -5 0 -9 -16 -9 -35 0 -43 -19 -137 -31 -150 -5 -5 -9 -18 -9 -30 0 -24
-22 -75 -32 -75 -3 0 -4 -9 -1 -20 3 -11 0 -27 -7 -35 -7 -8 -10 -21 -7 -30 4
-8 0 -29 -7 -47 -8 -18 -17 -57 -21 -85 -4 -29 -11 -55 -16 -58 -10 -7 -6 73
6 123 6 27 5 31 -9 26 -11 -4 -16 -1 -16 10 0 9 8 16 20 16 14 0 20 7 20 24 0
13 6 36 14 51 10 19 12 35 5 58 -5 18 -7 64 -3 104 5 59 10 74 25 78 22 7 25
21 7 27 -10 4 -8 24 8 85 14 58 18 88 11 113 -6 23 -5 36 2 38 6 2 11 21 11
41 0 21 3 41 6 44 8 8 16 57 18 112 0 24 8 45 17 52 9 7 20 29 23 50 12 65 27
103 42 103 16 0 19 16 5 22 -11 4 -2 58 9 58 5 0 11 -8 13 -17 2 -10 5 -4 5
12 2 80 25 149 29 85 2 -25 5 -64 8 -86z m-1554 -29 c-5 -52 -9 -64 -15 -47
-7 20 -3 56 11 105 9 33 11 13 4 -58z m2378 22 c20 -50 20 -87 0 -87 -4 0 -6
-6 -3 -14 3 -8 1 -17 -5 -21 -7 -3 -11 2 -11 14 0 11 -4 23 -10 26 -5 3 -10
14 -10 23 0 20 -56 82 -74 82 -6 0 -17 -5 -24 -12 -8 -8 -15 -8 -25 1 -15 12
-47 5 -47 -10 0 -5 -4 -9 -10 -9 -5 0 -10 7 -10 15 0 21 37 37 70 30 16 -4 37
-2 47 4 10 6 34 11 54 11 35 0 38 -3 58 -53z m-3177 -94 c-1 -184 -2 -209 -10
-193 -8 17 -4 325 5 317 3 -3 5 -59 5 -124z m2912 121 c15 -6 15 -7 0 -19 -13
-9 -23 -9 -40 -1 -13 6 -24 14 -24 19 0 9 42 9 64 1z m-180 -31 c-25 -13 -144
-22 -144 -11 0 15 32 23 97 23 58 0 66 -2 47 -12z m-17 -116 c6 1 14 -4 17
-12 7 -18 -3 -19 -26 -1 -11 8 -18 25 -17 42 l1 29 7 -30 c4 -16 12 -29 18
-28z m327 38 c3 -8 1 -15 -4 -15 -6 0 -10 7 -10 15 0 8 2 15 4 15 2 0 6 -7 10
-15z m186 -25 c11 -21 2 -77 -10 -63 -11 12 -20 69 -13 77 9 9 11 8 23 -14z
m-1251 -27 c14 -10 13 -13 -9 -31 -33 -26 -21 -37 25 -22 43 14 65 8 65 -19 0
-30 11 -51 25 -51 8 0 16 -8 19 -17 10 -32 0 -187 -14 -226 -12 -31 -12 -42
-2 -58 7 -11 10 -25 6 -31 -4 -6 -9 -32 -10 -57 -3 -41 -29 -262 -33 -269 0
-2 -13 9 -28 23 -27 24 -63 34 -63 16 0 -5 9 -11 20 -14 11 -3 20 -10 20 -16
0 -15 -40 -14 -41 2 0 13 -17 -22 -18 -39 -1 -7 6 -15 15 -18 11 -4 15 -2 11
8 -3 8 0 17 8 20 15 6 38 -17 28 -28 -4 -4 -1 -11 6 -15 7 -5 10 -14 6 -21 -5
-8 -10 -9 -18 -1 -6 6 -21 11 -34 11 -20 0 -22 -4 -20 -47 1 -37 -2 -48 -13
-48 -11 0 -14 10 -13 35 1 19 5 90 9 157 6 118 17 155 41 140 5 -3 1 33 -9 81
-10 48 -18 96 -18 107 1 18 1 19 11 3 5 -10 15 -18 21 -18 7 0 7 4 0 13 -5 7
-6 21 -1 32 13 33 9 42 -6 15 l-14 -25 -1 37 c0 39 15 60 23 31 3 -10 5 7 6
37 0 30 3 82 6 115 7 54 6 58 -9 46 -9 -7 -16 -21 -16 -30 0 -9 -4 -21 -9 -26
-5 -6 -12 -21 -15 -35 -2 -14 -3 34 -1 105 3 125 13 187 23 154 3 -7 12 -19
21 -26z m950 10 c-8 -10 -18 -21 -24 -25 -14 -11 -27 -10 -21 1 4 5 0 12 -6
14 -7 3 -3 6 9 6 12 1 25 6 28 11 3 6 11 10 17 10 6 0 5 -7 -3 -17z m191 -3
c0 -5 -7 -10 -16 -10 -8 0 -12 5 -9 10 3 6 10 10 16 10 5 0 9 -4 9 -10z m-86
-9 c3 -5 -5 -8 -18 -7 -13 0 -22 4 -19 9 6 10 31 9 37 -2z m-238 -23 c12 -19
-6 -19 -27 0 l-21 21 21 -6 c12 -3 24 -10 27 -15z m362 -30 l-1 -53 -6 45 c-6
43 -5 60 5 60 2 0 3 -24 2 -52z m-424 -3 c14 -11 16 -15 5 -15 -8 0 -23 7 -33
15 -14 11 -16 15 -5 15 8 0 23 -7 33 -15z m106 -35 c0 -11 -4 -20 -10 -20 -5
0 -10 9 -10 20 0 11 5 20 10 20 6 0 10 -9 10 -20z m290 -25 c9 -10 9 -15 1
-15 -6 0 -11 4 -11 9 0 5 -8 12 -17 14 -15 4 -15 5 -2 6 9 0 22 -6 29 -14z
m-2856 -78 c0 -39 -2 -124 -4 -187 l-3 -115 -7 140 c-7 138 -3 235 9 235 3 0
6 -33 5 -73z m2601 53 c3 -5 1 -10 -4 -10 -6 0 -11 5 -11 10 0 6 2 10 4 10 3
0 8 -4 11 -10z m123 3 c-10 -2 -26 -2 -35 0 -10 3 -2 5 17 5 19 0 27 -2 18 -5z
m138 -20 c-7 -7 -57 -21 -146 -42 -47 -10 -114 -8 -117 4 -2 5 14 8 35 7 20
-2 57 2 82 8 37 10 100 22 144 29 5 0 6 -2 2 -6z m-24 -135 c-48 -50 -53 -52
-104 -52 -70 -1 -128 34 -128 77 0 15 5 27 10 27 6 0 10 -4 10 -9 0 -41 95
-56 130 -21 11 11 20 26 20 34 0 8 22 20 53 28 52 15 52 15 55 -9 3 -17 -10
-38 -46 -75z m-3114 -115 c-1 -160 -2 -175 -8 -98 -7 82 -2 285 7 285 1 0 2
-84 1 -187z m3222 162 c0 -14 -4 -25 -10 -25 -11 0 -14 33 -3 43 11 11 13 8
13 -18z m-1283 -67 c-2 -13 -4 -5 -4 17 -1 22 1 32 4 23 2 -10 2 -28 0 -40z
m1212 -11 c-8 -7 -20 -20 -26 -31 -6 -11 -13 -15 -17 -8 -7 12 44 65 54 56 3
-3 -2 -11 -11 -17z m-3309 -24 c0 -19 -3 -24 -10 -17 -6 6 -8 18 -4 27 9 24
14 21 14 -10z m205 -104 c2 -67 0 -117 -4 -110 -10 15 -15 248 -5 239 3 -4 7
-62 9 -129z m442 99 c-3 -8 -6 -5 -6 6 -1 11 2 17 5 13 3 -3 4 -12 1 -19z
m2583 -28 c-8 -5 -24 -9 -35 -9 -16 1 -16 2 5 9 35 11 48 11 30 0z m307 -22
c-3 -7 -5 -2 -5 12 0 14 2 19 5 13 2 -7 2 -19 0 -25z m-370 16 c-3 -3 -12 -4
-19 -1 -8 3 -5 6 6 6 11 1 17 -2 13 -5z m-3169 -44 c2 -27 -10 -41 -21 -22 -5
7 9 52 16 52 1 0 4 -13 5 -30z m2560 -34 c-1 -19 4 -41 10 -49 10 -12 10 -16
0 -19 -20 -7 26 -68 81 -106 103 -74 230 -152 316 -195 104 -52 207 -97 248
-108 26 -7 47 -19 47 -26 0 -7 11 -13 25 -13 16 0 25 -6 25 -15 0 -9 -6 -15
-12 -14 -27 3 -36 -2 -53 -27 l-17 -27 28 7 c16 4 37 15 47 23 14 14 17 14 17
2 0 -8 -6 -21 -12 -28 -10 -11 -10 -14 0 -18 6 -3 12 -11 12 -19 0 -15 -31
-17 -114 -6 -44 6 -49 10 -60 42 l-11 34 -120 1 c-66 0 -126 4 -134 9 -10 7
-12 4 -6 -13 3 -11 3 -30 0 -42 -10 -29 -37 -5 -29 26 4 17 0 26 -15 35 -25
13 -41 6 -41 -18 0 -25 -59 49 -60 74 0 25 -24 49 -40 39 -6 -4 -10 4 -10 19
0 14 -4 26 -10 26 -5 0 -10 6 -10 14 0 8 -9 17 -19 21 -11 3 -23 16 -27 28 -3
12 -13 30 -22 40 -8 9 -12 17 -7 17 4 0 2 6 -4 14 -7 8 -20 12 -30 9 -46 -12
-93 146 -56 188 17 17 20 18 28 4 15 -27 27 -6 21 35 -6 38 -1 70 11 70 3 0 5
-15 3 -34z m-1881 -8 c-3 -8 -6 -5 -6 6 -1 11 2 17 5 13 3 -3 4 -12 1 -19z
m2273 -27 c-1 -18 -18 -30 -38 -24 -26 6 -29 30 -4 35 19 5 42 -1 42 -11z
m-2950 -21 c0 -16 -4 -30 -10 -30 -5 0 -10 14 -10 30 0 17 5 30 10 30 6 0 10
-13 10 -30z m674 3 c-10 -40 -14 -41 -14 -5 0 18 5 32 10 32 6 0 8 -11 4 -27z
m-250 -123 c1 -72 -2 -130 -5 -130 -12 0 -18 64 -14 140 3 41 5 88 5 104 0 16
3 26 7 23 3 -4 7 -66 7 -137z m1233 43 c-3 -10 -5 -2 -5 17 0 19 2 27 5 18 2
-10 2 -26 0 -35z m1043 32 c0 -8 -6 -15 -14 -15 -17 0 -28 14 -19 24 12 12 33
6 33 -9z m-2498 -54 c2 -17 1 -28 -4 -25 -8 5 -12 54 -4 54 2 0 6 -13 8 -29z
m3853 -4 c1 -15 -4 -27 -11 -27 -12 0 -25 45 -16 55 12 12 27 -3 27 -28z
m-4056 -49 c-1 -47 -3 -57 -9 -38 -12 36 -12 100 0 100 6 0 10 -27 9 -62z
m603 7 c-2 -14 -6 -25 -8 -25 -2 0 -4 11 -4 25 0 14 4 25 9 25 4 0 6 -11 3
-25z m1055 -27 c-2 -13 -4 -5 -4 17 -1 22 1 32 4 23 2 -10 2 -28 0 -40z
m-1666 -115 c-9 -15 -10 -12 -11 18 0 20 3 39 8 43 11 12 14 -42 3 -61z m166
10 c0 -53 -1 -55 -9 -24 -8 30 -4 81 6 81 2 0 3 -26 3 -57z m2235 -17 c-6 -11
-13 -28 -15 -36 -4 -10 -6 -8 -6 6 -1 12 4 36 11 55 9 26 13 29 16 15 2 -10
-1 -28 -6 -40z m-2392 -41 c0 -14 -4 -25 -10 -25 -11 0 -14 33 -3 43 11 11 13
8 13 -18z m1656 -22 c-11 -11 -19 6 -11 24 8 17 8 17 12 0 3 -10 2 -21 -1 -24z
m-1196 17 c0 -5 -4 -10 -10 -10 -5 0 -10 5 -10 10 0 6 5 10 10 10 6 0 10 -4
10 -10z m1193 -77 c-8 -65 -13 -67 -13 -5 0 29 4 52 10 52 6 0 7 -19 3 -47z
m717 22 c0 -14 -2 -25 -4 -25 -2 0 -6 11 -8 25 -3 14 -1 25 3 25 5 0 9 -11 9
-25z m-2370 -19 c0 -8 -4 -17 -9 -20 -10 -7 -23 19 -14 28 11 11 23 6 23 -8z
m2155 5 c7 -12 -12 -24 -25 -16 -11 7 -4 25 10 25 5 0 11 -4 15 -9z m-2004
-84 c-13 -13 -15 21 -3 50 6 15 8 13 10 -11 2 -16 -1 -33 -7 -39z m1450 40
c-10 -9 -11 -8 -5 6 3 10 9 15 12 12 3 -3 0 -11 -7 -18z m756 9 c0 -8 -6 -12
-14 -9 -7 3 -10 9 -7 14 8 14 21 11 21 -5z m2248 -95 c-4 -45 -12 -81 -17 -81
-10 0 -5 73 8 143 11 54 16 18 9 -62z m325 -143 c11 -25 34 -53 57 -68 l38
-26 0 -340 c0 -186 -2 -347 -4 -357 -3 -17 -5 -17 -22 -1 -18 17 -36 27 -176
99 -32 17 -59 33 -61 38 -2 4 -10 7 -18 7 -8 0 -14 4 -14 9 0 5 -25 19 -56 31
-47 19 -67 22 -137 17 -77 -4 -137 -21 -137 -37 0 -10 25 -19 185 -70 160 -51
164 -52 353 -149 75 -38 82 -45 82 -72 0 -34 -6 -36 -34 -10 -12 11 -59 36
-106 56 -47 21 -89 41 -95 45 -5 4 -77 34 -160 65 -186 71 -235 93 -235 105 0
14 -39 47 -76 65 -19 9 -34 19 -34 24 0 11 -67 41 -91 41 -30 0 -20 34 11 39
14 2 -14 10 -62 17 -93 14 -166 44 -174 72 -3 9 -10 24 -15 32 -21 35 -38 83
-33 91 7 12 51 11 59 -1 7 -12 52 -13 59 -2 3 5 -10 24 -30 43 -28 27 -42 33
-72 32 -20 -1 -29 1 -19 3 9 3 17 12 17 20 0 8 6 14 13 14 9 0 12 25 12 96 l0
96 -57 61 c-63 67 -71 87 -34 87 37 0 106 -84 160 -197 26 -54 53 -107 59
-118 13 -25 28 -55 62 -127 29 -64 51 -78 41 -27 -7 35 7 59 34 59 18 0 30
-26 30 -65 0 -11 9 -33 21 -50 11 -16 19 -23 16 -15 -20 67 121 68 190 1 12
-11 25 -21 28 -21 11 0 4 28 -10 40 -21 18 -19 33 4 25 25 -8 35 9 16 25 -8 7
-15 23 -15 35 0 19 4 21 26 17 14 -2 28 -12 31 -21 3 -9 7 -23 11 -31 8 -23 9
-28 11 -55 1 -28 13 -32 33 -11 8 7 24 17 36 20 25 8 29 21 8 29 -8 3 -16 16
-18 29 -2 16 -12 25 -39 31 -24 5 -40 17 -48 33 -10 23 -9 24 13 18 14 -3 32
-1 42 4 15 8 12 11 -17 18 -19 4 -37 7 -41 6 -5 -1 -8 4 -8 10 0 7 55 44 120
81 111 64 170 114 170 145 0 7 4 12 8 12 5 0 17 26 27 58 10 31 20 64 23 72 3
8 9 -24 14 -72 5 -48 17 -106 28 -130z m-4723 180 c-3 -8 -6 -5 -6 6 -1 11 2
17 5 13 3 -3 4 -12 1 -19z m55 -17 c2 -22 0 -37 -4 -35 -8 5 -11 74 -4 74 2 0
6 -18 8 -39z m-268 -445 c-3 -253 -8 -463 -10 -465 -11 -12 -13 20 -13 179 0
136 7 712 9 753 0 5 5 5 11 2 7 -5 8 -145 3 -469z m418 137 c-1 -186 -5 -345
-8 -353 -4 -8 -6 -31 -5 -51 3 -39 -7 -53 -28 -40 -10 7 -10 9 1 13 10 4 13
18 10 47 -2 22 -7 39 -11 37 -3 -2 -5 14 -2 37 2 23 8 45 14 49 6 4 8 11 3 15
-5 4 -11 2 -13 -4 -3 -7 -11 -13 -19 -13 -10 0 -15 13 -16 43 l-1 42 -4 -42
c-6 -58 -33 -60 -33 -3 0 22 5 40 10 40 6 0 10 18 10 40 0 22 4 40 8 40 5 0 9
20 10 44 0 54 12 79 23 50 6 -15 8 -14 9 11 1 26 3 27 10 10 6 -14 9 -1 10 45
2 107 16 280 23 280 1 0 1 -152 -1 -337z m2681 297 c34 0 37 -2 37 -30 0 -21
5 -30 16 -30 8 0 13 -4 9 -9 -3 -5 -25 -7 -49 -5 -25 3 -72 0 -106 -6 -79 -14
-90 -6 -15 11 65 14 89 36 29 25 -21 -4 -47 -9 -56 -12 -13 -4 -18 0 -18 13
-1 17 -1 17 -15 -1 -15 -19 -35 -14 -35 10 0 24 60 44 115 39 28 -3 67 -5 88
-5z m-2946 -32 c-3 -7 -5 -2 -5 12 0 14 2 19 5 13 2 -7 2 -19 0 -25z m1764
-25 c15 -41 -5 -83 -42 -83 -18 0 -34 8 -41 20 -11 18 -24 20 -100 20 -68 0
-88 3 -88 14 0 10 22 15 93 18 66 3 100 9 117 21 34 24 49 21 61 -10z m-1764
-45 c-3 -8 -6 -5 -6 6 -1 11 2 17 5 13 3 -3 4 -12 1 -19z m51 -93 c0 -64 -3
-117 -7 -119 -3 -2 -7 50 -8 115 -1 69 2 119 7 119 6 0 9 -49 8 -115z m3016
106 c3 -4 3 -11 0 -14 -8 -8 -34 3 -34 14 0 11 27 12 34 0z m-3705 -58 c-1
-41 -2 -44 -8 -18 -7 28 -4 65 5 65 2 0 3 -21 3 -47z m2711 31 c0 -8 -19 -13
-24 -6 -3 5 1 9 9 9 8 0 15 -2 15 -3z m1066 -20 c-38 -14 -61 -11 -51 7 4 5
25 9 48 8 l42 0 -39 -15z m-3139 -31 c-3 -10 -5 -4 -5 12 0 17 2 24 5 18 2 -7
2 -21 0 -30z m1653 33 c0 -2 -18 -6 -40 -8 -22 -2 -40 0 -40 4 0 5 18 8 40 8
22 0 40 -2 40 -4z m-20 -48 c0 -5 -21 -8 -46 -8 -27 0 -43 4 -39 10 7 11 85 9
85 -2z m417 -10 c-3 -8 -6 -5 -6 6 -1 11 2 17 5 13 3 -3 4 -12 1 -19z m-2531
-65 c16 -6 19 -33 4 -33 -6 0 -13 7 -16 15 -17 43 -54 -26 -54 -99 0 -25 -4
-47 -9 -50 -17 -11 -20 47 -8 119 10 58 16 72 37 82 22 11 25 10 28 -8 2 -11
10 -23 18 -26z m4254 10 c0 -10 -62 -73 -72 -73 -17 0 -7 20 25 49 31 30 47
38 47 24z m-2906 -44 c-8 -13 -24 -1 -24 18 0 13 3 13 15 3 8 -7 12 -16 9 -21z
m-1325 -36 c0 -25 -1 -26 -9 -8 -12 27 -12 35 0 35 6 0 10 -12 9 -27z m626
-43 c-5 -8 -11 -8 -17 -2 -6 6 -7 16 -3 22 5 8 11 8 17 2 6 -6 7 -16 3 -22z
m-120 -231 c-2 -107 -4 -198 -4 -202 -1 -5 -6 -5 -12 -2 -11 7 -5 227 7 247 4
6 2 13 -4 17 -7 4 -8 36 -5 91 11 149 22 54 18 -151z m4290 221 c3 -5 1 -10
-4 -10 -6 0 -11 5 -11 10 0 6 2 10 4 10 3 0 8 -4 11 -10z m-4791 -91 c-5 -80
-26 -139 -48 -139 -20 0 -21 24 -2 39 16 13 36 93 36 141 0 17 4 30 9 30 5 0
7 -32 5 -71z m1906 49 c0 -19 -2 -20 -10 -8 -13 19 -13 30 0 30 6 0 10 -10 10
-22z m37 -35 c-3 -10 -5 -4 -5 12 0 17 2 24 5 18 2 -7 2 -21 0 -30z m2978 -31
c-3 -3 -11 0 -18 7 -9 10 -8 11 6 5 10 -3 15 -9 12 -12z m-2992 -313 c-1 -72
-4 -134 -7 -137 -3 -3 -6 53 -6 125 0 106 4 143 14 143 1 0 0 -59 -1 -131z
m1757 91 c0 -5 -4 -10 -9 -10 -6 0 -13 5 -16 10 -3 6 1 10 9 10 9 0 16 -4 16
-10z m-3302 -41 c-3 -20 -5 -19 -9 9 -3 20 -2 29 4 23 5 -5 7 -19 5 -32z
m3419 35 c-3 -3 -12 -4 -19 -1 -8 3 -5 6 6 6 11 1 17 -2 13 -5z m-3814 -53 c4
-4 6 -70 5 -147 l-3 -139 -35 2 c-80 6 -75 -4 -73 150 1 76 2 142 3 147 0 9
91 -2 103 -13z m3293 -5 c-18 -15 -36 -22 -49 -18 -12 3 -18 1 -14 -5 4 -5 -6
-8 -24 -5 -31 5 -40 21 -11 23 30 1 72 9 95 19 34 13 34 11 3 -14z m-2582
-349 c-3 -193 -9 -376 -15 -406 -5 -30 -10 -95 -10 -145 l-2 -91 -8 119 c-5
66 -5 122 -1 125 5 3 9 76 9 161 0 85 3 248 6 362 5 143 3 209 -4 214 -8 4 -7
9 2 15 7 4 16 6 20 3 4 -2 5 -163 3 -357z m2412 299 c-3 -11 -6 -24 -6 -28 0
-5 -13 -8 -28 -8 -21 0 -32 -7 -40 -25 -17 -37 -45 -32 -65 13 -22 50 -22 49
11 55 15 4 45 10 67 15 52 11 68 5 61 -22z m-1096 -86 c-7 -17 -15 -29 -17
-26 -3 3 1 18 8 35 17 39 26 31 9 -9z m-1725 -70 c-12 -19 -22 -10 -17 16 4
22 6 24 14 10 5 -9 6 -21 3 -26z m1675 -24 c-5 -5 -10 -21 -11 -35 0 -15 -4
-35 -9 -46 -5 -13 -6 0 -3 33 5 44 3 52 -11 52 -19 0 -22 26 -3 33 18 7 50
-24 37 -37z m2930 24 c0 -5 15 -10 33 -10 37 0 64 -16 140 -82 30 -27 60 -48
68 -48 8 0 32 -12 54 -25 22 -14 51 -25 65 -25 68 -1 70 -3 70 -108 l0 -95
-25 23 c-14 13 -25 29 -25 36 0 6 -10 14 -23 18 -13 3 -34 15 -47 26 -13 11
-31 20 -40 20 -10 0 -23 7 -31 16 -7 8 -36 27 -63 41 -28 14 -61 33 -72 42
-12 9 -54 30 -95 46 -41 15 -91 41 -111 57 -20 15 -42 28 -47 28 -6 0 -11 5
-11 10 0 14 8 13 54 -9 23 -10 55 -22 71 -25 l30 -6 -24 20 c-13 11 -31 20
-42 20 -24 0 -35 20 -18 31 19 12 89 11 89 -1z m-4614 -168 c-12 -11 -14 4 -7
58 l6 55 3 -54 c2 -29 1 -56 -2 -59z m1591 76 c-3 -7 -5 -2 -5 12 0 14 2 19 5
13 2 -7 2 -19 0 -25z m70 -115 c-3 -10 -5 -4 -5 12 0 17 2 24 5 18 2 -7 2 -21
0 -30z m-1666 -65 c-8 -30 -9 -28 -9 27 0 50 1 56 9 33 7 -17 7 -38 0 -60z
m1666 0 c-3 -7 -5 -2 -5 12 0 14 2 19 5 13 2 -7 2 -19 0 -25z m3 -90 c0 -38
-3 -49 -11 -41 -10 10 -4 93 7 93 2 0 4 -23 4 -52z m-1670 -53 l-7 -60 -2 70
c0 42 3 65 8 60 5 -6 6 -36 1 -70z m1657 -102 c-2 -16 -4 -5 -4 22 0 28 2 40
4 28 2 -13 2 -35 0 -50z m-2107 -27 c0 -3 -4 -8 -10 -11 -5 -3 -10 -1 -10 4 0
6 5 11 10 11 6 0 10 -2 10 -4z m447 -113 c-3 -10 -5 -4 -5 12 0 17 2 24 5 18
2 -7 2 -21 0 -30z m1650 -115 c-2 -24 -4 -7 -4 37 0 44 2 63 4 43 2 -21 2 -57
0 -80z m251 -16 c22 -15 26 -76 7 -96 -20 -20 -62 -14 -80 11 -9 12 -30 15
-99 14 -68 -1 -87 1 -84 11 5 13 125 32 163 25 12 -2 28 6 40 20 21 24 32 28
53 15z m-1501 -49 c-3 -10 -5 -2 -5 17 0 19 2 27 5 18 2 -10 2 -26 0 -35z
m-87 21 c0 -8 -4 -12 -10 -9 -5 3 -10 10 -10 16 0 5 5 9 10 9 6 0 10 -7 10
-16z m-2 -71 c-3 -15 -4 -15 -21 1 -17 18 -17 19 0 31 15 12 19 11 21 -1 2 -8
2 -22 0 -31z m89 -20 c-3 -10 -5 -2 -5 17 0 19 2 27 5 18 2 -10 2 -26 0 -35z
m1263 -17 c0 -3 -4 -8 -10 -11 -5 -3 -10 -1 -10 4 0 6 5 11 10 11 6 0 10 -2
10 -4z m-1263 -38 c-3 -8 -6 -5 -6 6 -1 11 2 17 5 13 3 -3 4 -12 1 -19z m0
-160 c-3 -8 -6 -5 -6 6 -1 11 2 17 5 13 3 -3 4 -12 1 -19z m1243 -50 c0 -48
-3 -69 -10 -62 -9 9 -3 134 6 134 2 0 4 -32 4 -72z m-1250 -33 c0 -29 -7 -31
-32 -8 -25 22 -23 33 7 33 20 0 25 -5 25 -25z m-73 -47 c-3 -8 -6 -5 -6 6 -1
11 2 17 5 13 3 -3 4 -12 1 -19z m33 -48 c0 -46 11 -52 27 -12 10 25 11 23 12
-26 1 -46 -2 -53 -16 -50 -10 2 -22 13 -28 26 -5 12 -15 22 -22 22 -15 0 -17
26 -3 35 6 3 10 15 10 26 0 10 5 19 10 19 6 0 10 -18 10 -40z m-112 -58 c-4
-2 -9 -20 -9 -40 -1 -27 -3 -31 -6 -12 -3 13 -12 29 -20 36 -10 6 -13 16 -8
24 6 10 9 9 16 -1 6 -10 9 -5 9 16 l0 30 13 -25 c7 -14 9 -26 5 -28z m1383
-267 c-7 -32 -9 -13 -10 90 0 72 3 141 7 155 11 38 14 -198 3 -245z m-1292
189 c9 -8 -45 -2 -64 6 -14 7 -8 8 20 3 22 -3 42 -7 44 -9z m58 10 c-3 -3 -12
-4 -19 -1 -8 3 -5 6 6 6 11 1 17 -2 13 -5z m3 -40 c0 -8 -4 -12 -10 -9 -5 3
-10 10 -10 16 0 5 5 9 10 9 6 0 10 -7 10 -16z m2900 -50 c-47 -7 -105 -12
-130 -12 -58 0 -35 6 65 17 122 13 161 10 65 -5z m-2903 -26 c-3 -8 -6 -5 -6
6 -1 11 2 17 5 13 3 -3 4 -12 1 -19z m2681 15 c-10 -2 -28 -2 -40 0 -13 2 -5
4 17 4 22 1 32 -1 23 -4z m-161 -49 c-3 -3 -12 -4 -19 -1 -8 3 -5 6 6 6 11 1
17 -2 13 -5z m73 -24 c0 -5 -7 -7 -15 -4 -8 4 -15 8 -15 10 0 2 7 4 15 4 8 0
15 -4 15 -10z m-2610 -580 c0 -22 -4 -40 -10 -40 -5 0 -10 18 -10 40 0 22 5
40 10 40 6 0 10 -18 10 -40z m1440 -351 c0 -18 -4 -21 -29 -16 -16 3 -36 0
-47 -7 -19 -13 -158 -15 -171 -2 -3 3 0 13 7 21 10 12 31 15 92 14 43 -1 82 1
85 5 3 3 19 6 35 6 22 0 28 -5 28 -21z m-1613 -15 c-3 -3 -12 -4 -19 -1 -8 3
-5 6 6 6 11 1 17 -2 13 -5z m1628 -36 c-10 -49 -26 -61 -61 -48 -28 11 -28 12
-9 26 12 9 21 11 23 4 7 -19 20 -10 31 20 13 40 24 38 16 -2z m-1508 -20 c-3
-7 -5 -2 -5 12 0 14 2 19 5 13 2 -7 2 -19 0 -25z m1240 -270 c-2 -18 -4 -4 -4
32 0 36 2 50 4 33 2 -18 2 -48 0 -65z m-13 -475 c-3 -49 -8 -90 -10 -92 -6 -7
-4 132 2 157 12 43 15 21 8 -65z"/>
<path d="M6231 7339 c-7 -22 -15 -29 -26 -25 -12 4 -15 -3 -15 -32 l0 -37 28
35 c15 19 28 47 29 62 3 37 -2 35 -16 -3z"/>
<path d="M6081 7244 c0 -11 3 -14 6 -6 3 7 2 16 -1 19 -3 4 -6 -2 -5 -13z"/>
<path d="M6170 7205 c-8 -9 -22 -12 -43 -8 -30 5 -31 4 -13 -9 10 -8 16 -21
14 -29 -7 -19 11 -51 24 -43 7 4 6 9 -2 14 -8 5 -9 10 -2 14 6 4 16 -3 22 -14
6 -11 18 -20 27 -20 12 0 13 3 4 14 -7 8 -13 33 -14 55 -1 23 -2 41 -3 41 -1
0 -7 -7 -14 -15z"/>
<path d="M6296 7211 c-4 -7 -5 -15 -2 -18 9 -9 19 4 14 18 -4 11 -6 11 -12 0z"/>
<path d="M3533 6782 c-23 -15 -43 -30 -43 -34 0 -9 61 23 84 44 28 26 8 21
-41 -10z"/>
<path d="M3569 6761 c-13 -11 -19 -20 -14 -20 14 0 50 28 43 34 -3 3 -16 -3
-29 -14z"/>
<path d="M5426 6841 c-4 -5 -2 -12 3 -15 5 -4 12 -2 15 3 4 5 2 12 -3 15 -5 4
-12 2 -15 -3z"/>
<path d="M5340 6668 c0 -13 5 -30 10 -38 7 -11 8 -5 4 20 -4 26 -3 31 5 20 9
-13 11 -13 11 3 0 9 -7 17 -15 17 -9 0 -15 -9 -15 -22z"/>
<path d="M5590 6871 c0 -6 5 -13 10 -16 6 -3 10 1 10 9 0 9 -4 16 -10 16 -5 0
-10 -4 -10 -9z"/>
<path d="M2980 6769 c0 -5 5 -7 10 -4 6 3 10 8 10 11 0 2 -4 4 -10 4 -5 0 -10
-5 -10 -11z"/>
<path d="M3017 6753 c-4 -3 -7 -18 -7 -31 0 -31 13 -21 17 13 4 26 1 30 -10
18z"/>
<path d="M3060 6650 c0 -5 5 -10 11 -10 5 0 7 5 4 10 -3 6 -8 10 -11 10 -2 0
-4 -4 -4 -10z"/>
<path d="M4640 5966 c0 -22 3 -27 11 -19 8 8 8 16 0 30 -9 16 -10 14 -11 -11z"/>
<path d="M3893 5653 c9 -2 23 -2 30 0 6 3 -1 5 -18 5 -16 0 -22 -2 -12 -5z"/>
<path d="M5845 5614 c6 -2 10 -20 9 -39 -1 -19 2 -32 7 -29 5 3 9 0 9 -5 0 -6
4 -11 8 -11 4 0 6 17 4 38 -4 36 -16 52 -37 51 -6 0 -6 -2 0 -5z"/>
<path d="M5852 5500 c0 -14 2 -19 5 -12 2 6 2 18 0 25 -3 6 -5 1 -5 -13z"/>
<path d="M6017 5503 c-4 -3 -7 -11 -7 -17 0 -6 5 -5 12 2 6 6 9 14 7 17 -3 3
-9 2 -12 -2z"/>
<path d="M5691 4904 c0 -11 3 -14 6 -6 3 7 2 16 -1 19 -3 4 -6 -2 -5 -13z"/>
<path d="M5645 5326 c-3 -9 -7 -23 -10 -31 -2 -8 -1 -15 4 -15 10 0 25 50 17
58 -3 2 -8 -3 -11 -12z"/>
<path d="M5522 5115 c0 -16 2 -22 5 -12 2 9 2 23 0 30 -3 6 -5 -1 -5 -18z"/>
<path d="M6640 5350 c0 -36 13 -38 34 -8 22 31 20 38 -9 38 -21 0 -25 -5 -25
-30z"/>
<path d="M6575 5300 c-3 -5 1 -10 9 -10 9 0 16 5 16 10 0 6 -4 10 -9 10 -6 0
-13 -4 -16 -10z"/>
<path d="M5910 5011 c0 -5 5 -13 10 -16 6 -3 10 -2 10 4 0 5 -4 13 -10 16 -5
3 -10 2 -10 -4z"/>
<path d="M5980 4936 c0 -2 7 -9 15 -16 13 -11 14 -10 9 4 -5 14 -24 23 -24 12z"/>
<path d="M6030 4869 c0 -16 4 -28 9 -25 8 5 3 56 -5 56 -2 0 -4 -14 -4 -31z"/>
<path d="M6070 4779 c0 -5 5 -7 10 -4 6 3 10 8 10 11 0 2 -4 4 -10 4 -5 0 -10
-5 -10 -11z"/>
<path d="M6095 4751 c-3 -6 2 -14 12 -18 10 -4 24 -15 31 -25 20 -27 33 -22
26 10 -8 33 -4 29 -35 37 -16 4 -30 2 -34 -4z"/>
<path d="M6430 4665 c0 -14 6 -25 14 -25 9 0 12 8 8 25 -2 14 -8 25 -13 25 -5
0 -9 -11 -9 -25z"/>
<path d="M6154 4657 c3 -10 6 -23 6 -28 0 -5 5 -9 10 -9 14 0 12 13 -6 36 -14
17 -15 17 -10 1z"/>
<path d="M6275 4640 c3 -5 14 -10 23 -10 15 0 15 2 2 10 -20 13 -33 13 -25 0z"/>
<path d="M6599 4604 c-12 -14 -11 -16 5 -13 11 2 21 10 24 17 5 17 -13 15 -29
-4z"/>
<path d="M8350 4290 c0 -5 5 -10 11 -10 5 0 7 5 4 10 -3 6 -8 10 -11 10 -2 0
-4 -4 -4 -10z"/>
<path d="M8342 4213 c2 -10 10 -18 18 -18 8 0 16 -7 18 -16 4 -24 -32 -58 -69
-65 l-34 -7 23 25 22 24 -57 -2 c-32 -1 -66 -2 -75 -3 -24 -1 -23 -31 0 -31
10 0 27 -7 38 -15 25 -19 98 -19 114 0 7 8 23 15 37 15 23 0 24 3 21 55 -3 53
-4 55 -31 55 -22 0 -28 -4 -25 -17z"/>
<path d="M8137 4193 c-11 -10 -8 -33 4 -33 6 0 17 6 24 14 12 12 12 15 -1 20
-19 7 -19 7 -27 -1z"/>
<path d="M7393 4066 c-13 -6 -23 -13 -23 -16 0 -5 94 -60 104 -60 12 0 5 36
-12 56 -22 27 -41 33 -69 20z"/>
<path d="M8120 4052 c0 -4 7 -17 15 -29 15 -21 14 -22 -17 -17 -18 3 -46 0
-63 -7 -16 -7 -41 -13 -55 -13 -15 -1 -25 -7 -25 -16 0 -21 75 -31 208 -28
l112 3 -60 40 c-33 22 -68 43 -77 47 -10 4 -18 12 -18 18 0 5 -4 10 -10 10 -5
0 -10 -3 -10 -8z"/>
<path d="M7741 3921 c-15 -9 113 -36 129 -26 4 3 21 0 36 -5 46 -18 40 -1 -7
19 -47 20 -135 27 -158 12z"/>
<path d="M3782 4190 c0 -19 2 -27 5 -17 2 9 2 25 0 35 -3 9 -5 1 -5 -18z"/>
<path d="M3761 4194 c0 -11 3 -14 6 -6 3 7 2 16 -1 19 -3 4 -6 -2 -5 -13z"/>
<path d="M3761 4044 c0 -11 3 -14 6 -6 3 7 2 16 -1 19 -3 4 -6 -2 -5 -13z"/>
<path d="M3780 3930 c0 -5 5 -10 11 -10 5 0 7 5 4 10 -3 6 -8 10 -11 10 -2 0
-4 -4 -4 -10z"/>
<path d="M6370 4540 c0 -5 7 -7 15 -4 8 4 15 8 15 10 0 2 -7 4 -15 4 -8 0 -15
-4 -15 -10z"/>
<path d="M6464 4519 c-3 -5 -1 -9 5 -9 5 0 16 -3 25 -6 9 -3 16 -2 16 4 0 13
-38 23 -46 11z"/>
<path d="M5256 4503 c-3 -3 -3 -10 0 -14 7 -12 34 -11 34 0 0 11 -26 22 -34
14z"/>
<path d="M6073 3717 c-5 -8 21 -37 35 -37 5 0 15 7 22 15 7 8 21 15 31 15 11
0 19 5 19 10 0 12 -99 9 -107 -3z"/>
<path d="M8015 3480 c3 -5 8 -10 11 -10 2 0 4 5 4 10 0 6 -5 10 -11 10 -5 0
-7 -4 -4 -10z"/>
<path d="M5225 2751 c-6 -21 3 -51 16 -51 8 0 29 32 29 44 0 3 -9 10 -19 16
-16 8 -21 6 -26 -9z"/>
<path d="M8315 9570 c3 -5 12 -7 20 -3 21 7 19 13 -6 13 -11 0 -18 -4 -14 -10z"/>
<path d="M8149 9548 c-6 -13 -25 -38 -42 -55 -25 -26 -27 -33 -13 -33 16 0 86
67 86 83 0 4 6 7 14 7 8 0 18 5 21 10 4 6 -6 10 -24 10 -21 0 -34 -7 -42 -22z"/>
<path d="M7459 9556 c-2 -2 -211 -7 -464 -11 -253 -3 -496 -8 -540 -10 -44 -2
-249 -7 -455 -10 -206 -3 -494 -9 -640 -15 -146 -5 -436 -12 -645 -16 -466 -7
-823 -18 -828 -24 -2 -3 -7 -30 -10 -61 -5 -55 -5 -55 21 -52 15 1 245 7 512
13 267 6 643 15 835 20 193 5 573 14 845 20 272 5 657 14 855 20 198 6 398 12
445 13 l85 2 -3 27 c-1 15 4 38 13 52 14 21 14 24 0 30 -20 7 -20 7 -26 2z
m-392 -34 c6 -4 11 -16 10 -26 -1 -13 6 -22 23 -27 17 -5 19 -7 7 -8 -10 -1
-29 6 -42 15 -13 9 -33 13 -43 10 -11 -4 -24 0 -32 9 -11 13 -9 15 13 15 14 0
29 5 32 10 7 12 16 12 32 2z m163 -12 c0 -14 -43 -30 -54 -20 -4 5 -6 12 -3
17 8 12 57 15 57 3z m153 3 c-26 -5 -31 -33 -7 -33 14 0 14 -2 3 -16 -12 -14
-14 -14 -25 0 -6 9 -18 16 -27 16 -18 0 -31 16 -23 29 3 5 27 8 53 8 27 0 38
-2 26 -4z m-1243 -29 c0 -8 -5 -12 -10 -9 -6 4 -8 11 -5 16 9 14 15 11 15 -7z
m225 8 c6 -4 16 -18 23 -31 13 -23 13 -24 -10 -18 -12 4 -26 7 -30 7 -5 0 -8
11 -8 25 0 25 7 30 25 17z m1075 -7 c0 -8 -4 -15 -9 -15 -13 0 -22 16 -14 24
11 11 23 6 23 -9z m-275 -15 c3 -5 -3 -10 -14 -10 -12 0 -21 5 -21 10 0 6 6
10 14 10 8 0 18 -4 21 -10z m-2811 -35 c-4 -8 -11 -15 -16 -15 -6 0 -5 6 2 15
7 8 14 15 16 15 2 0 1 -7 -2 -15z m-412 -7 c-9 -9 -15 -9 -24 0 -9 9 -7 12 12
12 19 0 21 -3 12 -12z"/>
<path d="M7520 9551 c0 -23 67 -28 96 -6 17 13 14 14 -38 15 -32 0 -58 -4 -58
-9z"/>
<path d="M7753 9538 c22 -42 28 -47 42 -41 8 3 15 12 15 19 0 8 7 17 15 20 31
12 13 24 -34 24 -49 0 -50 -1 -38 -22z"/>
<path d="M8401 9513 c0 -7 -8 -13 -16 -13 -25 0 -17 -17 11 -24 15 -4 32 -2
37 3 8 8 6 11 -5 11 -9 0 -19 8 -21 18 -3 9 -5 11 -6 5z"/>
<path d="M730 9391 c0 -6 5 -13 10 -16 6 -3 10 1 10 9 0 9 -4 16 -10 16 -5 0
-10 -4 -10 -9z"/>
<path d="M743 9305 c0 -22 2 -30 4 -17 2 12 2 30 0 40 -3 9 -5 -1 -4 -23z"/>
<path d="M8441 9291 c-22 -17 -24 -26 -26 -105 -2 -96 7 -106 43 -51 17 28 22
49 22 105 0 38 -3 70 -7 70 -5 0 -19 -9 -32 -19z"/>
<path d="M2299 9055 c-3 -112 -1 -153 9 -161 26 -24 77 -326 85 -509 2 -39 1
-40 -27 -37 l-29 4 5 -51 c6 -61 13 -70 34 -49 13 13 14 20 4 38 -11 21 -7 40
7 26 12 -12 21 -135 22 -311 2 -163 13 -308 46 -570 29 -230 47 -441 52 -585
4 -130 3 -150 -16 -198 -12 -29 -21 -55 -21 -58 0 -11 76 10 101 27 34 24 58
96 71 214 11 94 13 69 -52 605 -11 91 -24 197 -30 235 -11 82 -26 260 -40 505
-15 241 -46 511 -70 600 -5 19 -15 60 -23 90 -20 78 -65 205 -97 275 l-28 60
-3 -150z m278 -2387 c-3 -8 -6 -5 -6 6 -1 11 2 17 5 13 3 -3 4 -12 1 -19z
m-40 -23 c-10 -21 -27 -34 -27 -21 0 18 22 56 29 52 5 -4 4 -17 -2 -31z"/>
<path d="M6903 9138 c3 -13 15 -48 26 -78 40 -101 52 -135 61 -165 17 -61 52
-161 65 -185 7 -14 18 -41 23 -60 11 -37 32 -96 53 -145 12 -30 12 -30 18 -6
4 15 18 27 41 35 31 10 35 15 33 43 -2 23 3 35 22 47 17 11 25 26 25 45 0 17
5 28 13 27 6 0 29 6 49 13 40 16 58 48 58 106 0 36 -49 173 -50 139 0 -11 7
-35 16 -53 15 -30 14 -34 -6 -73 -14 -28 -20 -52 -16 -70 7 -37 -20 -39 -35
-2 -13 35 -3 63 28 75 28 10 26 36 -3 31 -23 -4 -44 -30 -44 -55 0 -10 -11
-42 -24 -70 -13 -29 -27 -61 -30 -72 -7 -19 -8 -19 -26 5 -11 14 -20 32 -20
40 0 8 -27 94 -59 190 -33 96 -65 194 -71 218 l-11 42 -71 0 c-68 0 -70 -1
-65 -22z m267 -468 c0 -5 -4 -10 -10 -10 -5 0 -10 5 -10 10 0 6 5 10 10 10 6
0 10 -4 10 -10z"/>
<path d="M5128 9119 c-10 -5 -18 -17 -18 -25 0 -8 -4 -22 -9 -32 -5 -9 -26
-60 -47 -112 -20 -52 -43 -108 -50 -124 -8 -16 -14 -34 -14 -40 0 -12 -85
-231 -104 -266 -7 -14 -16 -37 -20 -52 l-6 -28 63 0 c58 0 64 2 79 28 8 15 23
51 32 80 l18 52 136 0 137 0 11 -27 c7 -16 17 -49 24 -75 l13 -48 68 0 c38 0
69 4 69 9 0 5 -7 22 -15 37 -8 16 -15 37 -15 46 0 9 -4 19 -9 23 -6 3 -20 38
-32 78 -12 39 -25 77 -29 82 -4 6 -17 39 -30 75 -12 36 -29 79 -36 97 -8 17
-14 34 -14 39 0 16 -65 180 -75 186 -15 11 -107 9 -127 -3z m90 -211 c11 -35
29 -87 41 -116 33 -83 34 -82 -69 -82 -65 0 -90 3 -90 13 0 12 76 222 86 238
9 15 12 11 32 -53z"/>
<path d="M4659 9107 c-16 -12 -31 -36 -108 -174 -23 -39 -45 -75 -51 -78 -16
-10 -11 -26 8 -24 49 5 82 -2 82 -16 0 -8 -6 -15 -14 -15 -8 0 -16 -6 -19 -14
-3 -8 -16 -20 -28 -26 -20 -11 -21 -10 -15 13 5 20 2 27 -14 32 -26 8 -31 4
-55 -42 -11 -21 -22 -40 -25 -43 -3 -3 -11 -17 -17 -32 -7 -16 -18 -28 -24
-28 -8 0 -9 58 -4 219 l7 220 -35 6 c-20 4 -49 3 -64 -2 l-28 -10 -3 -322 c-2
-177 -2 -328 1 -334 3 -8 25 -10 70 -7 l66 5 82 135 c110 183 169 286 169 298
0 5 7 13 16 16 14 6 16 -4 10 -81 -5 -79 -9 -274 -7 -345 1 -27 3 -28 56 -28
l55 0 0 43 c1 23 3 114 5 202 2 88 5 223 7 300 l3 140 -55 2 c-32 2 -62 -2
-71 -10z m1 -163 c0 -8 -4 -14 -10 -14 -5 0 -10 2 -10 4 0 2 -3 12 -6 20 -5
12 -2 15 10 10 9 -3 16 -12 16 -20z m-240 -319 c0 -22 -30 -65 -45 -65 -17 0
-6 52 14 67 22 17 31 16 31 -2z"/>
<path d="M751 9094 c0 -11 3 -14 6 -6 3 7 2 16 -1 19 -3 4 -6 -2 -5 -13z"/>
<path d="M7486 9021 c-4 -7 -5 -15 -2 -18 9 -9 19 4 14 18 -4 11 -6 11 -12 0z"/>
<path d="M2280 8858 c0 -19 2 -20 10 -8 13 19 13 30 0 30 -5 0 -10 -10 -10
-22z"/>
<path d="M766 8851 c-4 -7 -5 -15 -2 -18 9 -9 19 4 14 18 -4 11 -6 11 -12 0z"/>
<path d="M2166 8384 c-4 -9 -4 -19 -1 -22 2 -3 7 3 11 12 4 9 4 19 1 22 -2 3
-7 -3 -11 -12z"/>
<path d="M2180 8008 c-58 -50 -141 -121 -185 -158 -78 -66 -186 -173 -566
-563 l-184 -188 -240 30 c-412 52 -479 51 -627 -10 -77 -32 -79 -32 -113 -16
-20 9 -51 17 -69 17 -18 0 -46 6 -62 14 -16 7 -53 16 -81 19 l-53 6 0 -305 0
-306 32 7 c18 4 37 11 42 16 6 5 20 9 33 9 16 0 27 8 33 25 5 14 23 38 39 54
47 46 61 74 67 140 4 34 11 64 15 67 5 3 30 8 56 11 27 3 65 12 87 19 21 8 46
14 55 14 9 1 30 7 46 15 l30 13 -40 -4 c-75 -9 -160 -26 -198 -40 -47 -18 -47
-18 -47 5 0 10 7 21 15 25 8 3 23 22 32 43 l18 38 217 0 c197 0 219 -2 230
-18 12 -15 35 -19 157 -24 79 -3 155 -8 170 -12 30 -9 27 18 36 -301 3 -118
10 -240 15 -270 5 -30 14 -113 20 -185 6 -71 14 -146 18 -165 l6 -35 6 40 c7
39 7 39 9 7 0 -18 11 -46 23 -62 24 -33 26 -34 47 -21 12 8 12 12 2 25 -9 11
-10 16 -2 16 7 0 11 28 11 80 0 71 2 80 18 80 14 0 19 8 19 33 1 44 23 127 34
127 5 0 9 17 9 39 0 30 4 40 19 44 13 3 18 0 15 -7 -3 -7 -1 -23 4 -37 9 -23
10 -22 21 16 6 22 11 52 11 67 0 42 10 58 36 58 17 0 24 6 24 20 0 11 6 20 14
20 14 0 46 56 46 80 0 7 11 23 25 36 14 13 25 32 25 44 0 11 5 20 10 20 6 0
10 8 8 17 -2 10 4 19 15 21 12 3 17 -3 17 -21 0 -13 4 -37 9 -53 5 -16 13 -68
16 -116 10 -126 45 -114 45 16 0 22 6 64 14 91 12 46 15 50 42 48 26 -2 24 1
-19 23 -27 14 -47 27 -44 30 2 3 38 -6 78 -19 41 -13 101 -32 134 -42 33 -10
99 -31 146 -46 48 -16 93 -29 101 -29 8 0 28 -6 44 -14 16 -8 41 -19 57 -25
15 -6 27 -14 27 -19 0 -10 -54 -55 -145 -121 -69 -50 -123 -99 -136 -123 -7
-14 2 -28 43 -68 29 -27 58 -50 63 -50 6 0 40 24 76 53 36 28 84 65 107 81 23
16 42 33 42 37 0 5 4 9 9 9 6 0 33 24 60 53 42 45 60 56 107 67 43 10 62 22
85 49 16 20 28 42 28 51 -1 12 -2 11 -6 -2 -2 -9 -16 -24 -29 -33 -37 -24
-125 -48 -135 -38 -5 5 -18 41 -29 79 -11 39 -28 76 -39 84 -55 42 -82 58
-146 87 -38 18 -76 33 -83 33 -7 0 -23 6 -35 14 -12 8 -46 19 -75 26 -28 7
-55 16 -58 21 -3 5 -23 9 -44 9 -21 0 -42 5 -45 11 -4 5 -19 15 -33 20 -26 10
-26 11 -8 24 21 16 12 39 -14 32 -12 -3 -20 2 -23 14 -3 10 -2 17 2 16 3 -1
15 5 27 13 21 15 43 83 45 142 1 23 3 26 6 11 4 -19 11 -23 44 -23 l39 0 0 60
c0 33 4 60 9 60 5 0 7 9 4 19 -7 27 26 79 51 83 15 2 22 12 24 31 2 15 7 27
11 27 4 0 8 21 9 46 0 28 7 53 17 64 11 12 20 46 25 92 4 40 8 65 9 56 2 -30
29 -20 36 14 4 18 11 39 16 48 4 8 11 32 14 53 3 21 10 35 15 32 5 -3 11 3 13
12 3 10 5 -22 6 -72 1 -49 4 -112 6 -140 2 -27 7 -116 10 -198 7 -145 16 -183
30 -129 l8 27 7 -25 8 -25 1 26 c1 14 -5 31 -11 38 -11 11 -10 12 0 7 10 -6
12 25 8 161 -13 444 -19 573 -30 572 -6 0 -58 -41 -116 -91z m-543 -1197 c52
-18 60 -31 18 -31 -12 0 -30 9 -39 19 -10 11 -30 22 -45 24 -16 3 -19 4 -6 5
11 1 44 -7 72 -17z m50 -233 c-2 -13 -4 -3 -4 22 0 25 2 35 4 23 2 -13 2 -33
0 -45z m-490 -485 c-3 -10 -5 -2 -5 17 0 19 2 27 5 18 2 -10 2 -26 0 -35z"/>
<path d="M7343 8029 c-8 -8 -43 -10 -101 -7 l-90 4 15 -23 c9 -13 25 -23 37
-23 11 0 89 -3 171 -5 83 -3 170 -5 195 -5 25 1 96 -2 158 -5 101 -6 112 -9
112 -26 0 -24 12 -24 35 1 13 15 31 20 67 20 36 0 48 4 48 15 0 9 -9 15 -25
15 -14 0 -30 9 -37 20 -10 15 -24 20 -56 20 -39 0 -43 -2 -37 -20 8 -27 -20
-27 -35 -1 -15 28 -117 36 -289 22 -97 -8 -147 -8 -151 -1 -4 6 -10 6 -17 -1z"/>
<path d="M8240 7938 c0 -5 23 -8 52 -8 28 0 49 3 45 6 -9 9 -97 10 -97 2z"/>
<path d="M5495 7770 c-34 -23 -41 -42 -43 -125 l-1 -60 13 35 c7 19 11 51 9
70 -5 44 6 60 47 69 19 3 35 12 38 19 6 18 -29 14 -63 -8z"/>
<path d="M7218 7703 c-26 -7 -22 -23 6 -23 24 0 24 -1 30 -137 3 -76 11 -221
16 -323 l11 -185 31 -29 c34 -31 79 -48 96 -37 6 4 35 4 64 1 l53 -5 0 -65 c0
-58 -11 -145 -35 -295 -19 -111 -38 -167 -55 -158 -5 2 1 -4 15 -15 l25 -21
-28 -21 c-31 -25 -36 -44 -8 -35 11 3 22 1 26 -5 11 -19 20 -10 33 32 15 47
29 68 45 68 11 0 3 -63 -17 -130 -8 -25 -17 -58 -21 -73 -4 -20 -10 -27 -21
-23 -9 4 -18 -3 -24 -19 -5 -14 -14 -25 -20 -25 -16 0 -12 30 5 36 10 4 15 21
15 54 0 42 -3 48 -23 52 -13 3 -32 1 -43 -3 -10 -4 -32 -8 -48 -8 -51 -2 -17
-16 37 -16 47 0 52 -2 55 -23 4 -25 -32 -61 -61 -62 -10 0 -29 7 -43 16 -13 9
-27 15 -29 12 -3 -2 29 -26 70 -53 41 -27 77 -55 79 -62 10 -24 26 -13 26 17
0 17 9 43 20 58 30 41 111 294 98 309 -7 8 -5 21 6 40 8 15 24 50 35 77 17 38
18 46 5 35 -8 -7 -25 -31 -36 -53 -12 -23 -31 -55 -44 -72 -13 -17 -24 -35
-24 -41 0 -18 -57 -65 -65 -53 -4 6 -1 17 5 25 14 17 58 262 65 365 2 41 7
124 10 184 l6 108 -28 -5 c-110 -23 -152 -35 -180 -50 -18 -10 -36 -16 -40
-15 -9 4 -9 7 -22 283 -7 127 -13 256 -15 288 -4 55 -3 57 22 64 l27 7 -30 7
c-35 8 -54 8 -77 2z m365 -1240 c-6 -16 -33 -17 -33 -2 0 6 5 20 12 32 11 21
11 21 18 2 4 -11 5 -26 3 -32z"/>
<path d="M7814 7695 c-6 -16 14 -429 22 -457 3 -9 0 -20 -7 -23 -8 -6 -8 -10
2 -15 12 -8 55 -5 109 7 25 5 25 5 3 13 -27 11 -36 61 -31 175 l3 80 135 -3
c74 -1 135 -4 137 -6 2 -2 6 -60 10 -129 5 -97 9 -127 20 -127 15 0 15 -6 3
140 -5 63 -10 157 -11 208 -2 98 -10 114 -46 93 -17 -10 -17 -10 0 -11 14 0
17 -10 17 -60 0 -33 1 -63 3 -67 3 -10 -89 -16 -117 -9 -19 5 -21 13 -22 74
-2 83 -14 113 -38 93 -10 -9 -13 -18 -7 -25 4 -6 11 -39 15 -74 l6 -63 -58 3
-57 3 -6 60 c-3 33 -2 65 3 71 5 7 3 14 -7 18 -11 4 -14 13 -10 26 6 17 2 20
-30 20 -22 0 -38 -6 -41 -15z"/>
<path d="M7495 7690 l-30 -8 37 -1 37 -1 2 -117 c1 -65 2 -136 3 -158 1 -22 3
-93 4 -158 2 -90 5 -118 15 -114 13 4 14 260 1 451 l-5 89 51 -5 c59 -6 55 8
-5 15 -22 3 -49 7 -60 10 -11 3 -33 2 -50 -3z"/>
<path d="M5708 7673 c7 -3 16 -2 19 1 4 3 -2 6 -13 5 -11 0 -14 -3 -6 -6z"/>
<path d="M8078 7643 c6 -2 18 -2 25 0 6 3 1 5 -13 5 -14 0 -19 -2 -12 -5z"/>
<path d="M8420 7640 c-12 -8 -11 -10 8 -10 12 0 22 5 22 10 0 13 -11 13 -30 0z"/>
<path d="M7436 7557 c3 -10 9 -15 12 -12 3 3 0 11 -7 18 -10 9 -11 8 -5 -6z"/>
<path d="M7465 7520 c3 -5 8 -10 11 -10 2 0 4 5 4 10 0 6 -5 10 -11 10 -5 0
-7 -4 -4 -10z"/>
<path d="M5039 7451 c-29 -23 -24 -31 14 -24 18 4 27 12 27 24 0 24 -12 24
-41 0z"/>
<path d="M5070 7411 c0 -5 -9 -13 -20 -16 -11 -3 -20 -13 -20 -21 0 -12 4 -12
26 2 22 15 27 15 34 3 5 -7 13 -10 17 -5 4 5 2 11 -4 13 -7 3 -13 11 -13 19 0
8 -4 14 -10 14 -5 0 -10 -4 -10 -9z"/>
<path d="M4893 7342 c-22 -40 -42 -114 -26 -97 12 12 55 126 50 131 -2 2 -13
-13 -24 -34z"/>
<path d="M7035 7359 c-11 -17 1 -21 15 -4 8 9 8 15 2 15 -6 0 -14 -5 -17 -11z"/>
<path d="M2040 7350 c0 -5 7 -10 15 -10 8 0 15 5 15 10 0 6 -7 10 -15 10 -8 0
-15 -4 -15 -10z"/>
<path d="M2294 7198 c3 -46 5 -127 6 -181 0 -85 2 -97 16 -95 10 2 18 -3 20
-10 1 -7 0 -8 -2 -3 -3 6 -12 7 -20 4 -11 -4 -13 -17 -8 -57 7 -52 23 -86 25
-50 0 10 3 13 6 7 2 -7 9 -13 15 -13 7 0 8 37 4 113 -4 61 -9 152 -12 202 -3
49 -10 97 -15 107 -5 9 -9 26 -9 37 0 12 -7 21 -16 21 -13 0 -14 -12 -10 -82z
m33 -20 c-3 -8 -6 -5 -6 6 -1 11 2 17 5 13 3 -3 4 -12 1 -19z m0 -50 c-3 -8
-6 -5 -6 6 -1 11 2 17 5 13 3 -3 4 -12 1 -19z"/>
<path d="M4996 7235 c9 -14 19 -24 21 -21 6 6 -20 46 -30 46 -4 0 0 -11 9 -25z"/>
<path d="M4835 7188 c-6 -32 -29 -97 -45 -129 -5 -9 -18 -63 -30 -120 -13 -57
-30 -112 -38 -122 -13 -15 -14 -22 -4 -38 8 -13 10 -46 6 -104 -3 -57 -2 -85
5 -85 14 0 14 -27 0 -32 -7 -2 -5 -9 4 -17 20 -16 20 -15 42 171 9 75 24 170
34 211 10 41 14 82 10 93 -6 14 -8 9 -8 -18 -1 -20 -5 -39 -9 -42 -8 -5 -8 8
-3 82 1 7 5 11 10 8 11 -7 28 36 36 94 4 25 9 53 11 63 3 9 1 17 -5 17 -5 0
-12 -15 -16 -32z"/>
<path d="M1966 7101 c-4 -7 -5 -15 -2 -18 9 -9 19 4 14 18 -4 11 -6 11 -12 0z"/>
<path d="M7640 7062 c0 -5 7 -16 16 -23 14 -12 16 -11 13 5 -4 20 -29 35 -29
18z"/>
<path d="M7706 7022 c-4 -24 -6 -46 -2 -49 8 -8 18 42 14 68 -3 18 -6 13 -12
-19z"/>
<path d="M690 6960 c-11 -8 -7 -9 15 -4 37 8 45 14 19 14 -10 0 -26 -5 -34
-10z"/>
<path d="M7810 6850 c0 -6 7 -10 15 -10 8 0 15 2 15 4 0 2 -7 6 -15 10 -8 3
-15 1 -15 -4z"/>
<path d="M7725 6785 c-14 -13 -25 -30 -25 -37 0 -7 7 -3 15 9 9 12 26 29 38
38 12 8 16 15 9 15 -7 0 -24 -11 -37 -25z"/>
<path d="M7849 6787 c-35 -24 -65 -63 -119 -161 -21 -37 -28 -57 -19 -54 8 2
22 22 33 44 24 51 69 110 120 156 46 42 37 50 -15 15z"/>
<path d="M2345 6780 c3 -5 8 -10 11 -10 2 0 4 5 4 10 0 6 -5 10 -11 10 -5 0
-7 -4 -4 -10z"/>
<path d="M4620 6706 c-5 -15 -10 -32 -10 -38 0 -5 -8 -22 -19 -36 -10 -15 -21
-39 -24 -54 -4 -14 -9 -34 -12 -45 -10 -33 62 113 75 151 14 43 6 62 -10 22z"/>
<path d="M1001 6643 c1 -43 4 -89 8 -103 7 -24 8 -24 21 13 8 20 19 37 26 37
24 0 31 24 20 70 -9 38 -15 45 -34 43 -12 -2 -22 2 -22 7 0 6 -4 10 -10 10 -6
0 -10 -32 -9 -77z"/>
<path d="M6901 6713 c0 -6 -4 -20 -7 -30 -5 -14 -4 -15 5 -7 7 7 11 20 8 30
-3 11 -5 14 -6 7z"/>
<path d="M2802 6590 c0 -19 2 -27 5 -17 2 9 2 25 0 35 -3 9 -5 1 -5 -18z"/>
<path d="M859 6525 c-41 -41 -75 -80 -77 -85 -2 -6 -10 -10 -18 -10 -8 0 -14
-7 -14 -15 0 -8 -4 -15 -10 -15 -5 0 -31 -22 -57 -50 -26 -27 -100 -104 -163
-170 -63 -66 -206 -213 -317 -327 l-202 -208 -1 -1135 c0 -1221 0 -1231 56
-1625 32 -217 45 -497 25 -509 -4 -3 -11 -29 -15 -57 -4 -28 -19 -74 -33 -103
-24 -46 -27 -65 -31 -186 -7 -227 -8 -225 72 -64 38 76 73 148 77 159 4 11 16
40 27 65 47 106 67 363 42 515 -10 54 -28 201 -50 405 -12 106 -47 337 -60
390 -35 150 -43 243 -33 435 10 181 1 397 -21 530 -8 50 -21 123 -28 164 -9
58 -9 76 0 79 9 3 8 9 -3 24 -9 13 -11 27 -6 37 5 9 11 33 15 54 8 41 12 44
36 22 15 -14 18 -12 29 25 12 41 44 72 66 64 16 -7 24 16 32 88 6 61 18 73 33
36 8 -20 9 -19 10 12 1 66 24 127 62 168 21 22 32 42 26 44 -8 3 -7 11 2 28
l13 25 13 -30 12 -30 7 50 c3 28 10 58 16 67 5 10 9 24 9 32 0 8 6 17 13 20 9
5 9 7 0 12 -20 9 -15 24 8 24 16 0 20 5 16 20 -3 11 -1 20 3 20 5 0 11 18 15
40 4 25 12 40 21 40 8 0 14 8 14 18 0 30 41 137 56 145 8 4 14 16 14 25 0 10
6 24 13 31 10 11 10 14 0 18 -20 7 -15 24 5 21 13 -2 18 5 20 30 2 20 9 32 18
32 10 0 14 12 14 40 0 27 4 40 14 40 8 0 17 15 20 35 7 33 41 103 57 115 16
12 69 123 69 144 0 14 4 26 9 28 5 2 21 28 36 58 26 51 28 53 36 32 16 -42 34
-19 31 36 -2 41 3 60 24 93 45 72 13 64 -67 -16z"/>
<path d="M7172 6520 c1 -28 0 -50 -4 -50 -18 0 -5 -29 26 -59 26 -26 38 -31
51 -24 16 9 16 11 1 16 -9 4 -16 12 -16 19 0 7 -9 24 -20 38 -12 16 -20 41
-20 68 0 24 -5 42 -11 42 -7 0 -10 -18 -7 -50z"/>
<path d="M4700 6524 c0 -20 29 -49 38 -39 4 4 1 10 -5 12 -7 3 -13 13 -13 24
0 10 -4 19 -10 19 -5 0 -10 -7 -10 -16z"/>
<path d="M7278 6474 c-25 -13 -38 -34 -23 -34 14 0 65 32 65 40 0 13 -10 12
-42 -6z"/>
<path d="M4660 6470 c0 -5 5 -10 10 -10 6 0 10 5 10 10 0 6 -4 10 -10 10 -5 0
-10 -4 -10 -10z"/>
<path d="M8148 6453 c7 -3 16 -2 19 1 4 3 -2 6 -13 5 -11 0 -14 -3 -6 -6z"/>
<path d="M6960 6430 c0 -5 5 -10 10 -10 6 0 10 5 10 10 0 6 -4 10 -10 10 -5 0
-10 -4 -10 -10z"/>
<path d="M4644 6405 c-20 -31 -11 -73 12 -51 8 8 14 21 14 29 0 9 5 17 12 19
13 5 2 28 -12 28 -5 0 -17 -11 -26 -25z"/>
<path d="M7617 6350 c-30 -93 -48 -153 -64 -210 -8 -30 -19 -59 -24 -64 -15
-16 -10 -47 12 -93 l21 -44 22 19 c11 11 28 23 37 28 32 18 169 149 169 162 0
7 -13 21 -30 30 -17 9 -36 33 -44 54 -17 40 -45 55 -76 38 -24 -13 -26 -1 -9
48 6 17 9 43 7 58 -3 24 -6 21 -21 -26z"/>
<path d="M8029 6375 c-47 -35 -144 -140 -184 -200 -52 -76 -184 -214 -227
-236 -22 -11 -38 -27 -38 -37 0 -17 16 -82 27 -112 3 -8 6 -30 8 -48 1 -18 4
-34 6 -35 51 -35 82 -64 94 -87 8 -16 24 -32 35 -35 13 -4 23 -18 27 -36 l5
-29 117 5 c148 7 190 13 220 29 l23 13 -30 34 c-30 34 -30 34 -119 33 -48 0
-125 -3 -171 -5 l-83 -4 -35 39 c-28 32 -34 45 -29 68 6 23 3 28 -13 28 -11 0
-25 6 -31 14 -9 11 -4 23 25 57 19 24 44 51 54 59 30 25 90 118 90 140 0 11 4
20 8 20 5 0 15 11 22 25 7 13 17 22 22 19 4 -3 3 -14 -3 -25 -6 -12 -8 -23 -5
-26 7 -8 25 40 19 50 -3 5 9 24 27 42 23 23 30 39 26 53 -5 15 4 30 36 60 53
50 121 100 154 112 13 5 24 16 24 25 0 25 -61 19 -101 -10z"/>
<path d="M7160 6375 c7 -8 17 -15 22 -15 6 0 5 7 -2 15 -7 8 -17 15 -22 15 -6
0 -5 -7 2 -15z"/>
<path d="M7230 6362 c0 -5 9 -18 20 -30 21 -23 50 -30 50 -12 0 6 -7 10 -15
10 -8 0 -19 9 -25 20 -11 20 -30 28 -30 12z"/>
<path d="M7120 6329 c0 -18 2 -19 15 -9 8 7 15 16 15 21 0 5 -7 9 -15 9 -9 0
-15 -9 -15 -21z"/>
<path d="M7080 6315 c0 -8 5 -15 10 -15 6 0 10 7 10 15 0 8 -4 15 -10 15 -5 0
-10 -7 -10 -15z"/>
<path d="M8036 6233 c-32 -38 -67 -86 -78 -108 -11 -22 -27 -48 -36 -57 -13
-16 -13 -18 0 -18 8 0 19 9 24 19 5 11 23 36 39 56 17 20 44 53 60 73 31 37
59 91 52 98 -2 2 -30 -26 -61 -63z"/>
<path d="M897 6276 c-4 -9 -4 -31 0 -49 l7 -32 7 28 c9 34 -3 81 -14 53z"/>
<path d="M7044 6281 c-10 -10 -3 -31 11 -31 8 0 23 -9 34 -21 16 -18 26 -20
60 -14 45 7 55 31 24 56 -15 13 -118 20 -129 10z"/>
<path d="M7481 6254 c0 -11 3 -14 6 -6 3 7 2 16 -1 19 -3 4 -6 -2 -5 -13z"/>
<path d="M3207 6214 c-7 -37 -7 -396 0 -407 15 -25 23 32 23 175 0 115 -3 158
-12 162 -10 5 -10 7 0 12 14 6 17 84 3 84 -5 0 -11 -12 -14 -26z"/>
<path d="M7144 6185 c3 -9 6 -19 6 -21 0 -2 7 -4 16 -4 22 0 13 34 -10 38 -14
3 -17 0 -12 -13z"/>
<path d="M900 6110 c0 -16 -5 -30 -10 -30 -6 0 -5 -8 2 -20 13 -20 13 -20 20
2 10 36 9 78 -2 78 -5 0 -10 -13 -10 -30z"/>
<path d="M7318 6133 c7 -3 16 -2 19 1 4 3 -2 6 -13 5 -11 0 -14 -3 -6 -6z"/>
<path d="M8195 6010 c-19 -8 -19 -9 3 -9 12 -1 22 4 22 9 0 6 -1 10 -2 9 -2 0
-12 -4 -23 -9z"/>
<path d="M8285 6000 c3 -5 11 -10 16 -10 6 0 7 5 4 10 -3 6 -11 10 -16 10 -6
0 -7 -4 -4 -10z"/>
<path d="M1710 5990 c0 -5 5 -10 10 -10 6 0 10 5 10 10 0 6 -4 10 -10 10 -5 0
-10 -4 -10 -10z"/>
<path d="M7895 5986 c-11 -6 -22 -13 -25 -16 -3 -3 -24 -18 -47 -34 -42 -28
-54 -46 -33 -46 6 0 39 9 73 19 34 10 89 25 122 32 82 17 87 25 18 34 -32 4
-65 11 -73 15 -8 4 -24 3 -35 -4z"/>
<path d="M9360 5990 c0 -5 7 -10 15 -10 7 0 18 -8 24 -17 11 -20 16 -17 25 15
7 20 4 22 -28 22 -20 0 -36 -4 -36 -10z"/>
<path d="M8130 5965 c0 -8 -6 -15 -14 -15 -8 0 -21 -6 -28 -13 -7 -7 -51 -28
-97 -48 -92 -38 -117 -61 -54 -49 67 13 140 47 221 105 1 1 0 10 -4 19 -8 20
-24 21 -24 1z"/>
<path d="M1182 5832 l-2 -143 22 20 c16 16 19 23 9 34 -9 11 -8 17 4 27 17 14
20 40 5 40 -5 0 -13 0 -17 0 -5 0 -11 37 -14 82 -4 72 -6 63 -7 -60z"/>
<path d="M1200 5911 c0 -25 19 -38 31 -20 12 19 6 33 -14 37 -11 2 -17 -3 -17
-17z"/>
<path d="M1720 5920 c0 -5 5 -10 11 -10 5 0 7 5 4 10 -3 6 -8 10 -11 10 -2 0
-4 -4 -4 -10z"/>
<path d="M1215 5850 c-3 -5 -1 -10 4 -10 6 0 11 5 11 10 0 6 -2 10 -4 10 -3 0
-8 -4 -11 -10z"/>
<path d="M5190 5830 c0 -13 23 -49 69 -110 32 -42 34 -43 27 -15 -10 43 -53
113 -76 125 -14 8 -20 8 -20 0z"/>
<path d="M7784 5795 c-20 -15 -11 -18 20 -6 11 4 15 10 9 14 -5 3 -19 0 -29
-8z"/>
<path d="M7487 5741 c-20 -10 -34 -21 -30 -24 10 -11 51 -8 58 3 3 6 15 10 26
10 10 0 19 7 19 15 0 19 -25 18 -73 -4z"/>
<path d="M5215 5710 c3 -5 8 -10 11 -10 2 0 4 5 4 10 0 6 -5 10 -11 10 -5 0
-7 -4 -4 -10z"/>
<path d="M1191 5664 c0 -11 3 -14 6 -6 3 7 2 16 -1 19 -3 4 -6 -2 -5 -13z"/>
<path d="M2360 5626 c0 -53 16 -69 25 -27 6 26 -7 71 -20 71 -3 0 -5 -20 -5
-44z"/>
<path d="M7495 5571 c-3 -5 -1 -12 5 -16 12 -7 30 2 30 16 0 12 -27 12 -35 0z"/>
<path d="M2366 5543 c-8 -8 -8 -48 1 -56 10 -10 33 13 33 33 0 18 -23 34 -34
23z"/>
<path d="M8100 5514 c-49 -17 -89 -22 -167 -23 -56 -1 -104 -5 -107 -10 -4 -5
15 -20 41 -33 27 -14 73 -39 103 -55 72 -41 224 -91 278 -92 39 -1 41 0 30 18
-8 13 -17 17 -26 12 -19 -11 -84 9 -106 32 -10 9 -23 17 -29 17 -7 0 -30 16
-51 35 -28 25 -37 38 -29 46 7 7 15 6 26 -5 19 -19 97 -33 97 -18 0 8 8 9 27
1 25 -9 49 -8 86 7 8 3 17 -2 21 -11 9 -24 -3 -38 -20 -24 -22 18 -16 1 13
-39 15 -20 27 -38 28 -38 0 -1 17 -4 38 -8 22 -4 37 -3 37 3 0 16 -42 51 -62
51 -13 0 -18 8 -18 29 0 43 -10 61 -32 61 -10 0 -30 12 -45 26 -40 40 -61 43
-133 18z"/>
<path d="M7650 5496 c0 -17 39 -66 40 -49 0 6 -4 23 -10 37 -10 28 -30 35 -30
12z"/>
<path d="M7462 5450 c-40 -33 -66 -250 -31 -250 5 0 9 -9 9 -19 0 -36 18 -31
24 7 12 75 27 235 24 257 -3 23 -3 23 -26 5z m18 -36 c0 -8 -4 -14 -10 -14 -5
0 -10 9 -10 21 0 11 5 17 10 14 6 -3 10 -13 10 -21z"/>
<path d="M2370 5431 c0 -6 5 -13 10 -16 6 -3 10 1 10 9 0 9 -4 16 -10 16 -5 0
-10 -4 -10 -9z"/>
<path d="M2378 5375 c-9 -15 -3 -185 7 -188 4 -1 9 25 11 58 2 66 -8 146 -18
130z"/>
<path d="M931 5354 c0 -11 3 -14 6 -6 3 7 2 16 -1 19 -3 4 -6 -2 -5 -13z"/>
<path d="M936 5217 c2 -128 3 -135 13 -117 10 16 2 210 -8 210 -3 0 -5 -42 -5
-93z"/>
<path d="M5296 5295 c-3 -9 0 -15 9 -15 16 0 20 16 6 24 -5 3 -11 -1 -15 -9z"/>
<path d="M8220 5254 c0 -3 18 -27 41 -52 23 -26 49 -63 59 -82 20 -38 70 -108
70 -97 0 33 -26 116 -42 134 -19 20 -17 50 2 38 4 -3 19 -1 32 4 19 8 16 10
-24 10 -26 1 -50 6 -53 11 -4 6 -22 17 -42 25 -40 17 -43 17 -43 9z"/>
<path d="M8075 5193 c12 -27 27 -64 34 -83 6 -19 20 -46 31 -60 17 -22 20 -23
20 -6 0 38 -34 126 -63 161 -40 49 -49 44 -22 -12z"/>
<path d="M7821 5025 c0 -55 4 -107 9 -115 12 -19 13 -14 10 83 -3 124 -18 150
-19 32z"/>
<path d="M2390 5012 c0 -30 4 -52 11 -52 7 0 8 16 3 48 -9 64 -14 66 -14 4z"/>
<path d="M8155 4959 c-11 -17 1 -21 15 -4 8 9 8 15 2 15 -6 0 -14 -5 -17 -11z"/>
<path d="M2391 4868 c2 -84 19 -231 26 -224 2 2 5 67 6 145 3 130 1 143 -16
152 -17 10 -18 5 -16 -73z"/>
<path d="M8195 4883 c7 -30 13 -39 19 -32 8 8 -6 59 -16 59 -6 0 -7 -11 -3
-27z"/>
<path d="M140 4865 c0 -8 5 -15 10 -15 6 0 10 7 10 15 0 8 -4 15 -10 15 -5 0
-10 -7 -10 -15z"/>
<path d="M964 4753 c2 -29 -1 -54 -5 -55 -11 -4 1 -108 12 -108 11 0 10 98 -1
165 l-9 50 3 -52z"/>
<path d="M9490 4731 c0 -5 5 -13 10 -16 6 -3 10 -2 10 4 0 5 -4 13 -10 16 -5
3 -10 2 -10 -4z"/>
<path d="M9333 4433 c-3 -10 -8 -22 -11 -27 -3 -5 2 -6 12 -3 12 5 19 -1 27
-20 15 -41 24 -18 9 27 -14 43 -27 51 -37 23z"/>
<path d="M9521 4428 c-1 -16 4 -28 9 -28 12 0 12 8 0 35 -8 18 -9 17 -9 -7z"/>
<path d="M2423 4370 c0 -30 2 -43 4 -27 2 15 2 39 0 55 -2 15 -4 2 -4 -28z"/>
<path d="M9331 4364 c0 -11 3 -14 6 -6 3 7 2 16 -1 19 -3 4 -6 -2 -5 -13z"/>
<path d="M9381 4334 c0 -11 3 -14 6 -6 3 7 2 16 -1 19 -3 4 -6 -2 -5 -13z"/>
<path d="M978 4279 c-1 -24 -1 -53 0 -64 1 -11 2 -37 2 -57 1 -21 6 -40 12
-44 6 -4 7 27 3 97 -8 113 -14 137 -17 68z"/>
<path d="M9342 4265 c0 -16 2 -22 5 -12 2 9 2 23 0 30 -3 6 -5 -1 -5 -18z"/>
<path d="M2419 4265 c-6 -26 0 -55 12 -55 10 0 10 14 0 50 -6 23 -8 23 -12 5z"/>
<path d="M990 4008 c0 -26 4 -38 8 -30 8 12 4 72 -4 72 -2 0 -4 -19 -4 -42z"/>
<path d="M993 3909 c4 -30 7 -78 7 -106 0 -29 5 -53 10 -53 13 0 13 127 -1
135 -6 4 -7 19 -4 35 4 17 2 31 -6 36 -9 5 -11 -6 -6 -47z"/>
<path d="M2448 3693 c-3 -11 -2 -38 1 -59 l7 -39 6 38 c4 21 3 48 -1 59 -8 21
-8 21 -13 1z"/>
<path d="M9361 3664 c0 -11 3 -14 6 -6 3 7 2 16 -1 19 -3 4 -6 -2 -5 -13z"/>
<path d="M9350 3610 c0 -5 5 -10 10 -10 6 0 10 5 10 10 0 6 -4 10 -10 10 -5 0
-10 -4 -10 -10z"/>
<path d="M2452 3570 c0 -14 2 -19 5 -12 2 6 2 18 0 25 -3 6 -5 1 -5 -13z"/>
<path d="M2806 3581 c-10 -15 3 -234 14 -245 21 -21 24 -7 21 119 -1 39 -1 77
0 85 4 32 -2 50 -15 50 -8 0 -17 -4 -20 -9z"/>
<path d="M1015 3481 c-4 -7 -4 -35 0 -63 8 -56 25 -48 25 12 0 41 -14 68 -25
51z"/>
<path d="M2457 3420 c6 -22 23 -38 23 -21 0 17 -12 41 -20 41 -5 0 -6 -9 -3
-20z"/>
<path d="M9466 3401 c15 -14 54 -23 54 -13 0 5 -10 12 -22 16 -33 8 -44 8 -32
-3z"/>
<path d="M3512 3345 c0 -16 2 -22 5 -12 2 9 2 23 0 30 -3 6 -5 -1 -5 -18z"/>
<path d="M2456 3329 c-3 -19 -1 -38 5 -46 8 -8 9 -34 5 -72 -8 -72 3 -241 16
-241 6 0 7 57 3 143 -4 78 -7 160 -6 182 0 54 -14 77 -23 34z"/>
<path d="M2815 3309 c-10 -15 4 -99 16 -99 5 0 9 25 9 55 0 51 -10 69 -25 44z"/>
<path d="M1032 3170 c0 -19 2 -27 5 -17 2 9 2 25 0 35 -3 9 -5 1 -5 -18z"/>
<path d="M2810 3173 c0 -17 6 -36 14 -42 12 -10 13 -6 6 24 -11 48 -20 56 -20
18z"/>
<path d="M2811 3034 c0 -11 3 -14 6 -6 3 7 2 16 -1 19 -3 4 -6 -2 -5 -13z"/>
<path d="M3201 2974 c0 -11 3 -14 6 -6 3 7 2 16 -1 19 -3 4 -6 -2 -5 -13z"/>
<path d="M2471 2938 c0 -13 4 -32 9 -43 7 -15 9 -10 9 23 1 23 -3 42 -9 42 -5
0 -10 -10 -9 -22z"/>
<path d="M1041 2894 c0 -11 3 -14 6 -6 3 7 2 16 -1 19 -3 4 -6 -2 -5 -13z"/>
<path d="M2842 2880 c0 -14 2 -19 5 -12 2 6 2 18 0 25 -3 6 -5 1 -5 -13z"/>
<path d="M1033 2855 c-3 -9 -3 -18 0 -21 9 -9 27 6 27 22 0 19 -19 18 -27 -1z"/>
<path d="M2826 2841 c-8 -12 3 -41 15 -41 12 0 12 37 0 45 -5 3 -12 1 -15 -4z"/>
<path d="M3185 2800 c3 -5 8 -10 11 -10 2 0 4 5 4 10 0 6 -5 10 -11 10 -5 0
-7 -4 -4 -10z"/>
<path d="M1048 2789 c-9 -22 3 -219 13 -219 10 0 10 112 1 185 -5 30 -10 44
-14 34z"/>
<path d="M3211 2786 c-1 -14 -6 -17 -27 -12 -17 5 -23 3 -19 -4 3 -5 12 -10
20 -10 7 0 15 -6 18 -12 8 -23 19 -1 14 29 -2 15 -5 20 -6 9z"/>
<path d="M2832 2715 c0 -41 3 -75 8 -75 9 0 19 116 12 138 -11 33 -20 4 -20
-63z"/>
<path d="M3118 2723 c7 -3 16 -2 19 1 4 3 -2 6 -13 5 -11 0 -14 -3 -6 -6z"/>
<path d="M2874 2638 c-13 -21 -11 -793 2 -878 6 -41 12 -71 13 -65 0 5 6 4 13
-3 23 -23 29 -12 26 48 -2 54 0 63 23 83 15 12 26 31 26 42 -1 59 5 86 23 103
22 21 60 114 60 147 0 12 11 45 25 73 14 29 25 60 25 71 0 10 7 21 15 25 8 3
15 12 15 21 0 8 4 15 9 15 5 0 15 2 23 5 9 4 13 -7 14 -40 1 -25 -3 -45 -8
-45 -5 0 -9 -57 -9 -127 0 -248 -9 -809 -14 -853 -4 -40 -6 -262 -3 -300 3
-34 -3 -50 -17 -50 -18 0 -20 -21 -2 -38 7 -8 13 -47 15 -95 5 -127 4 -571 -1
-679 l-5 -98 37 0 37 0 2 393 c1 346 7 613 13 715 2 25 8 34 27 39 l25 6 -24
18 c-13 10 -19 19 -14 19 6 0 9 19 7 45 -2 25 0 45 5 45 5 0 7 19 4 43 -3 36
-5 39 -12 19 -16 -43 -28 -12 -27 67 0 43 -5 87 -11 99 -7 13 -7 23 -1 27 5 3
7 27 5 52 -11 103 -13 628 -3 647 7 13 7 21 -3 27 -10 6 -10 11 1 24 11 13 11
18 1 24 -16 10 -10 115 9 153 13 28 7 64 -10 53 -5 -3 -10 -2 -10 4 0 5 -14
12 -31 16 -17 4 -42 13 -57 21 -15 8 -35 14 -45 14 -10 0 -25 7 -34 15 -8 9
-28 19 -44 22 -16 3 -29 10 -29 15 0 5 -4 7 -9 4 -4 -3 -17 1 -27 9 -24 18
-41 19 -50 3z m296 -266 c0 -5 -7 -17 -15 -28 -15 -19 -20 -8 -9 20 6 17 24
22 24 8z"/>
<path d="M2488 2618 c-3 -7 -1 -24 3 -38 6 -22 7 -20 8 13 1 38 -3 47 -11 25z"/>
<path d="M1058 2549 c-3 -8 -3 -58 0 -112 6 -117 22 -111 21 8 0 82 -10 132
-21 104z"/>
<path d="M2785 2510 c3 -5 8 -10 11 -10 2 0 4 5 4 10 0 6 -5 10 -11 10 -5 0
-7 -4 -4 -10z"/>
<path d="M2494 2496 c-8 -22 -2 -27 16 -16 12 7 12 12 3 21 -10 10 -14 9 -19
-5z"/>
<path d="M2530 2497 c0 -8 7 -18 16 -21 11 -4 14 -1 12 11 -4 21 -28 30 -28
10z"/>
<path d="M2832 2448 c-1 -20 -5 -45 -8 -55 -5 -17 -5 -17 6 0 6 9 9 34 7 55
l-4 37 -1 -37z"/>
<path d="M1203 2379 c-15 -15 -17 -48 -4 -68 8 -12 11 -9 16 11 4 14 5 36 3
48 -2 17 -5 19 -15 9z"/>
<path d="M3247 2373 c-4 -3 -7 -34 -7 -67 0 -49 4 -64 19 -73 27 -17 34 -53
11 -53 -11 0 -22 5 -25 10 -17 27 -20 -5 -18 -177 3 -212 10 -313 23 -313 15
0 65 51 55 56 -11 5 -13 99 -2 110 4 4 7 0 7 -9 0 -10 8 -17 18 -17 14 0 17
10 19 53 2 53 15 88 44 120 9 10 14 28 11 42 -2 14 0 25 6 25 5 0 13 11 16 25
4 14 11 25 18 25 8 0 9 -69 4 -262 -5 -145 -9 -364 -10 -488 -4 -293 -15 -795
-21 -935 -3 -60 -7 -185 -8 -277 l-3 -168 27 0 27 0 -3 183 c-2 184 0 211 16
201 5 -3 9 4 9 16 0 12 -4 19 -9 15 -6 -3 -9 24 -8 70 1 41 6 75 10 75 5 0 5
6 0 12 -7 13 -6 320 3 863 3 165 7 422 10 572 2 149 4 275 5 280 5 28 -2 35
-28 29 -18 -4 -23 -3 -15 2 17 11 -14 23 -114 46 -83 18 -79 18 -87 9z"/>
<path d="M1073 2164 c-2 -63 1 -104 7 -104 12 0 14 179 2 196 -4 7 -8 -35 -9
-92z"/>
<path d="M2510 2086 c-5 -15 -10 -36 -10 -46 0 -10 -4 -22 -10 -25 -14 -9 -12
-25 3 -22 9 1 12 -24 14 -98 0 -55 4 -120 8 -145 3 -25 10 -184 15 -355 6
-170 14 -337 19 -369 4 -34 4 -76 -1 -99 -10 -47 -3 -78 17 -70 9 3 13 13 9
27 -5 21 -6 61 -19 511 -3 121 -8 227 -11 235 -3 8 -7 118 -9 243 -2 126 -6
231 -9 234 -3 3 -10 -6 -16 -21z"/>
<path d="M1075 2000 c-3 -6 -3 -20 1 -33 4 -12 8 -75 9 -139 0 -80 5 -122 13
-130 11 -11 12 9 8 102 -2 63 -5 136 -5 163 -1 44 -12 60 -26 37z"/>
<path d="M2460 1943 c-7 -21 -18 -42 -24 -48 -22 -18 -49 -102 -42 -130 4 -16
3 -24 -3 -21 -5 3 -11 -1 -15 -9 -3 -8 -1 -15 4 -15 13 0 40 30 40 44 0 8 6
19 14 25 8 7 12 21 9 32 -3 11 2 28 10 37 15 17 35 122 24 122 -3 0 -11 -17
-17 -37z"/>
<path d="M2332 1668 c-11 -24 -27 -65 -36 -93 -10 -27 -21 -52 -25 -55 -4 -3
-17 -32 -30 -65 -13 -33 -43 -101 -67 -151 -24 -49 -44 -95 -44 -101 0 -11
-48 -121 -80 -183 -10 -19 -21 -46 -25 -60 -7 -22 -57 -140 -99 -235 -38 -84
-46 -104 -46 -118 0 -8 -6 -19 -13 -26 -8 -6 -24 -43 -37 -83 -14 -40 -27 -75
-31 -78 -3 -3 -9 -17 -13 -32 -3 -16 -11 -28 -16 -28 -6 0 -10 -5 -10 -11 0
-11 -30 -80 -61 -142 -10 -21 -19 -43 -19 -50 0 -7 -11 -35 -24 -63 -47 -96
-47 -94 33 -94 64 0 71 2 71 20 0 11 1 23 2 28 3 10 67 70 80 74 6 2 12 14 13
26 1 12 15 36 31 53 18 20 24 33 17 36 -9 3 -9 12 -1 36 15 45 28 56 28 25 0
-37 10 -58 26 -58 10 0 14 12 14 40 0 29 4 40 15 40 20 0 19 10 -2 25 -17 12
-17 14 1 34 11 12 25 21 31 21 8 0 16 34 23 98 16 138 28 196 41 200 6 2 8 14
5 28 -5 19 -3 23 10 18 13 -5 16 1 16 34 0 47 17 64 37 37 12 -17 13 -15 13
23 0 34 3 42 19 42 20 0 19 -14 21 320 0 8 -1 22 -2 30 -2 8 2 17 7 20 6 3 12
-6 13 -20 2 -14 8 -29 13 -34 13 -14 11 -50 -3 -64 -9 -9 -9 -12 0 -12 8 0 12
-19 12 -57 0 -115 10 -41 16 118 5 143 7 185 13 223 0 4 8 6 16 2 10 -4 15 1
15 14 0 11 -4 20 -10 20 -5 0 -10 5 -10 11 0 5 5 7 10 4 6 -3 14 4 18 16 7 19
10 20 15 6 15 -38 24 -11 30 86 4 56 10 112 13 125 11 38 -13 24 -34 -20z
m-192 -715 c0 -5 -5 -15 -10 -23 -8 -12 -10 -11 -10 8 0 12 5 22 10 22 6 0 10
-3 10 -7z m-213 -615 c-3 -8 -6 -5 -6 6 -1 11 2 17 5 13 3 -3 4 -12 1 -19z"/>
<path d="M2871 1664 c0 -11 3 -14 6 -6 3 7 2 16 -1 19 -3 4 -6 -2 -5 -13z"/>
<path d="M3122 1668 c6 -18 28 -21 28 -4 0 9 -7 16 -16 16 -9 0 -14 -5 -12
-12z"/>
<path d="M2895 1620 c-10 -16 16 -43 28 -31 11 11 2 41 -12 41 -5 0 -13 -5
-16 -10z"/>
<path d="M3240 1616 c0 -9 5 -16 10 -16 6 0 10 4 10 9 0 6 -4 13 -10 16 -5 3
-10 -1 -10 -9z"/>
<path d="M3243 1567 c2 -15 1 -30 -3 -32 -4 -3 -4 -23 0 -46 4 -22 5 -49 3
-60 -3 -10 -2 -26 1 -36 6 -15 8 -15 22 -1 13 13 14 24 3 78 -8 44 -9 64 -1
69 7 4 4 15 -9 31 l-21 25 5 -28z"/>
<path d="M1251 1564 c0 -11 3 -14 6 -6 3 7 2 16 -1 19 -3 4 -6 -2 -5 -13z"/>
<path d="M2915 1530 c-3 -5 1 -10 10 -10 9 0 13 5 10 10 -3 6 -8 10 -10 10 -2
0 -7 -4 -10 -10z"/>
<path d="M1097 1474 c-3 -11 0 -82 7 -159 l14 -140 2 135 c1 74 1 142 0 150
-3 25 -18 33 -23 14z"/>
<path d="M2814 1429 c-3 -6 1 -18 10 -27 15 -15 16 -14 16 11 0 27 -13 36 -26
16z"/>
<path d="M1266 1375 c-3 -8 -1 -15 4 -15 6 0 10 7 10 15 0 8 -2 15 -4 15 -2 0
-6 -7 -10 -15z"/>
<path d="M2798 1348 c-2 -13 -2 -46 2 -73 l6 -50 8 57 c5 33 4 63 -2 73 -8 15
-10 15 -14 -7z"/>
<path d="M3036 1301 c-4 -7 -5 -15 -2 -18 9 -9 19 4 14 18 -4 11 -6 11 -12 0z"/>
<path d="M1267 1200 c-11 -40 -8 -80 6 -80 9 0 12 12 9 38 -6 62 -8 68 -15 42z"/>
<path d="M3040 1184 c0 -8 5 -12 10 -9 6 3 10 10 10 16 0 5 -4 9 -10 9 -5 0
-10 -7 -10 -16z"/>
<path d="M2800 1083 c0 -24 5 -43 10 -43 13 0 13 50 0 70 -7 11 -10 4 -10 -27z"/>
<path d="M3486 895 c-3 -9 0 -15 9 -15 16 0 20 16 6 24 -5 3 -11 -1 -15 -9z"/>
<path d="M1126 733 c3 -93 8 -195 9 -228 2 -33 3 -75 4 -92 0 -18 5 -33 10
-33 12 0 20 71 11 90 -5 8 -9 103 -11 210 -3 201 -5 220 -21 220 -6 0 -7 -63
-2 -167z"/>
<path d="M3291 846 c-8 -9 -11 -19 -7 -23 9 -9 29 13 24 27 -2 8 -8 7 -17 -4z"/>
<path d="M2162 750 c0 -19 2 -27 5 -17 2 9 2 25 0 35 -3 9 -5 1 -5 -18z"/>
<path d="M2800 745 c0 -9 9 -15 21 -15 18 0 19 2 9 15 -7 8 -16 15 -21 15 -5
0 -9 -7 -9 -15z"/>
<path d="M3120 709 c0 -5 5 -7 10 -4 6 3 10 8 10 11 0 2 -4 4 -10 4 -5 0 -10
-5 -10 -11z"/>
<path d="M3120 623 c0 -33 -4 -41 -27 -50 l-28 -11 28 -1 c25 -1 27 -4 27 -41
0 -22 -4 -40 -9 -40 -5 0 -11 -12 -13 -27 -2 -22 -9 -29 -30 -31 -38 -4 -36
-22 2 -22 17 0 30 -4 30 -10 0 -5 5 -10 11 -10 6 0 8 7 5 16 -3 8 -2 12 4 9 5
-3 10 46 12 121 2 69 0 128 -4 131 -5 2 -8 -13 -8 -34z"/>
<path d="M2561 586 c-1 -42 2 -57 9 -50 8 8 8 27 2 60 l-10 49 -1 -59z"/>
<path d="M2808 603 c7 -3 16 -2 19 1 4 3 -2 6 -13 5 -11 0 -14 -3 -6 -6z"/>
<path d="M2080 578 c0 -19 2 -20 10 -8 13 19 13 30 0 30 -5 0 -10 -10 -10 -22z"/>
<path d="M1271 528 c0 -7 4 -22 9 -33 8 -18 9 -17 9 7 1 15 -3 30 -9 33 -5 3
-10 0 -9 -7z"/>
<path d="M3492 528 c-7 -7 -12 -23 -12 -37 0 -25 1 -25 20 7 11 18 20 35 20
37 0 9 -16 5 -28 -7z"/>
<path d="M2960 490 c0 -5 5 -10 11 -10 5 0 7 5 4 10 -3 6 -8 10 -11 10 -2 0
-4 -4 -4 -10z"/>
<path d="M2806 454 c-9 -35 -5 -154 6 -183 5 -15 5 -28 -3 -37 -11 -13 -7
-143 6 -163 3 -6 13 -11 22 -11 13 0 14 10 8 63 -4 34 -7 102 -6 152 2 158
-15 251 -33 179z m25 -367 c-8 -8 -11 -7 -11 4 0 20 13 34 18 19 3 -7 -1 -17
-7 -23z"/>
<path d="M3545 460 c3 -10 1 -28 -5 -40 -9 -16 -8 -20 5 -20 11 0 15 11 15 40
0 22 -5 40 -11 40 -6 0 -8 -8 -4 -20z"/>
<path d="M2951 414 c0 -11 3 -14 6 -6 3 7 2 16 -1 19 -3 4 -6 -2 -5 -13z"/>
<path d="M2572 365 c0 -16 2 -22 5 -12 2 9 2 23 0 30 -3 6 -5 -1 -5 -18z"/>
<path d="M1144 323 c3 -21 6 -49 7 -63 1 -18 3 -14 9 13 8 44 2 87 -12 87 -7
0 -8 -15 -4 -37z"/>
<path d="M3121 334 c0 -11 3 -14 6 -6 3 7 2 16 -1 19 -3 4 -6 -2 -5 -13z"/>
<path d="M2560 305 c0 -8 4 -15 9 -15 5 0 11 7 15 15 3 9 0 15 -9 15 -8 0 -15
-7 -15 -15z"/>
<path d="M2951 283 c-1 -31 -5 -43 -16 -43 -9 0 -15 -9 -15 -25 0 -14 -4 -25
-10 -25 -5 0 -10 11 -10 25 0 14 -4 25 -9 25 -12 0 -20 -95 -14 -174 l6 -68
92 4 c94 4 125 15 125 45 0 12 -7 14 -29 10 -23 -5 -30 -2 -34 13 -7 26 -35
36 -58 21 -18 -10 -19 -7 -19 48 0 36 5 61 12 63 8 3 7 20 -4 64 l-16 59 -1
-42z"/>
<path d="M3086 249 c-10 -50 -7 -169 4 -169 6 0 10 40 10 100 0 55 -2 100 -4
100 -2 0 -6 -14 -10 -31z"/>
<path d="M1412 250 c0 -14 2 -19 5 -12 2 6 2 18 0 25 -3 6 -5 1 -5 -13z"/>
<path d="M3034 234 c-3 -19 -2 -45 4 -57 9 -18 11 -12 11 36 1 65 -5 74 -15
21z"/>
<path d="M1987 246 c-4 -10 -5 -21 -2 -24 9 -9 17 6 13 25 -3 17 -4 17 -11 -1z"/>
<path d="M2576 228 c-9 -34 -7 -68 3 -68 13 0 24 71 13 82 -6 6 -12 1 -16 -14z"/>
<path d="M3471 224 c0 -11 3 -14 6 -6 3 7 2 16 -1 19 -3 4 -6 -2 -5 -13z"/>
<path d="M3000 171 c0 -5 -8 -11 -17 -14 -17 -4 -17 -4 0 -12 22 -10 47 0 47
20 0 8 -7 15 -15 15 -8 0 -15 -4 -15 -9z"/>
<path d="M1151 125 c0 -22 4 -49 9 -60 7 -15 9 -9 9 25 0 25 -4 52 -9 60 -7
11 -10 4 -9 -25z"/>
<path d="M1978 153 c7 -3 16 -2 19 1 4 3 -2 6 -13 5 -11 0 -14 -3 -6 -6z"/>
<path d="M3605 150 c3 -5 10 -10 16 -10 5 0 9 5 9 10 0 6 -7 10 -16 10 -8 0
-12 -4 -9 -10z"/>
<path d="M1422 110 c0 -14 2 -19 5 -12 2 6 2 18 0 25 -3 6 -5 1 -5 -13z"/>
<path d="M1421 64 c0 -11 3 -14 6 -6 3 7 2 16 -1 19 -3 4 -6 -2 -5 -13z"/>
<path d="M2580 42 c0 -32 4 -42 16 -42 12 0 14 7 9 32 -11 52 -25 57 -25 10z"/>
<path d="M2820 15 c0 -8 7 -15 16 -15 14 0 14 3 4 15 -7 8 -14 15 -16 15 -2 0
-4 -7 -4 -15z"/>
</g>
</svg>
