<?xml version="1.0" encoding="UTF-8"?><svg xmlns="http://www.w3.org/2000/svg" xmlns:xlink="http://www.w3.org/1999/xlink" viewBox="0 0 802.34 418.32"><defs><style>.cls-1{fill:#4683c4;stroke:#cddef3;stroke-miterlimit:10;stroke-width:.5px;}</style></defs><g id="Capa_1"><image width="512" height="512" transform="scale(.82)" xlink:href="../../../Downloads/software.png"/></g><g id="Capa_2"><path class="cls-1" d="M462.04,219.69c2.52.97,4.88,2.45,7.07,4.44l-4.55,5.21c-1.73-1.43-3.47-2.48-5.22-3.12s-3.63-.97-5.64-.97c-2.24,0-4.05.5-5.43,1.49-1.38,1-2.07,2.4-2.07,4.2,0,1.2.27,2.2.81,2.99.54.79,1.51,1.53,2.91,2.22,1.4.69,3.48,1.46,6.23,2.29,4.76,1.48,8.35,3.32,10.75,5.52,2.4,2.2,3.61,5.41,3.61,9.62,0,2.87-.73,5.42-2.21,7.64-1.47,2.22-3.58,3.96-6.34,5.21-2.76,1.25-6.02,1.87-9.8,1.87s-6.99-.59-9.91-1.77c-2.92-1.18-5.43-2.79-7.53-4.83l4.76-5.28c1.87,1.57,3.8,2.77,5.81,3.58,2.01.81,4.22,1.22,6.65,1.22,2.66,0,4.81-.62,6.44-1.87s2.45-3.01,2.45-5.28c0-1.39-.28-2.54-.84-3.44-.56-.9-1.52-1.71-2.87-2.43-1.36-.72-3.31-1.47-5.88-2.26-5.14-1.57-8.85-3.47-11.13-5.7-2.29-2.22-3.43-5.14-3.43-8.75,0-2.64.7-4.95,2.1-6.95,1.4-1.99,3.35-3.54,5.85-4.65s5.33-1.67,8.51-1.67c3.41,0,6.37.49,8.89,1.46Z"/><path class="cls-1" d="M508.25,221.15c3.17,1.94,5.61,4.79,7.32,8.54,1.7,3.75,2.56,8.26,2.56,13.54s-.86,9.72-2.59,13.47c-1.73,3.75-4.18,6.62-7.35,8.61-3.18,1.99-6.91,2.99-11.2,2.99s-8.1-.97-11.27-2.92c-3.17-1.94-5.63-4.79-7.35-8.54-1.73-3.75-2.59-8.26-2.59-13.54s.86-9.66,2.59-13.44c1.72-3.77,4.19-6.66,7.39-8.65,3.2-1.99,6.94-2.99,11.24-2.99s8.1.97,11.27,2.92ZM488.44,229.59c-1.96,2.89-2.94,7.47-2.94,13.72,0,11.99,3.83,17.99,11.48,17.99,3.74,0,6.57-1.43,8.51-4.31,1.94-2.87,2.9-7.45,2.9-13.75s-.97-10.81-2.9-13.68c-1.94-2.87-4.77-4.31-8.51-4.31s-6.58,1.45-8.54,4.34Z"/><path class="cls-1" d="M526.81,267.26v-47.99h27.38l-.98,6.81h-17.16v14.38h14.91v6.81h-14.91v20h-9.24Z"/><path class="cls-1" d="M592.14,219.27l-.98,7.29h-12.6v40.7h-9.31v-40.7h-13.02v-7.29h35.92Z"/><path class="cls-1" d="M649.98,219.27l-8.89,47.99h-12.04l-7.35-38.27-7.56,38.27h-11.7l-8.75-47.99h9.17l6.16,40.7,7.91-40.7h9.8l7.77,40.7,6.72-40.7h8.75Z"/><path class="cls-1" d="M682.4,267.26l-3.01-11.11h-16.04l-3.01,11.11h-9.59l15.05-47.99h11.41l14.99,47.99h-9.8ZM665.17,249.21h12.33l-6.16-22.92-6.16,22.92Z"/><path class="cls-1" d="M712.71,248.03h-5.88v19.24h-9.24v-47.99h14.42c12.79,0,19.19,4.7,19.19,14.1,0,3.19-.79,5.83-2.38,7.92-1.59,2.08-4.06,3.77-7.42,5.07l12.67,20.9h-10.64l-10.71-19.24ZM706.83,241.43h5.74c2.94,0,5.17-.64,6.69-1.91,1.52-1.27,2.27-3.32,2.27-6.15,0-2.59-.78-4.48-2.35-5.66s-4.03-1.77-7.39-1.77h-4.97v15.49Z"/><path class="cls-1" d="M768.45,219.27l-.98,6.81h-17.85v13.4h15.54v6.81h-15.54v14.1h19.11v6.88h-28.36v-47.99h28.08Z"/><path class="cls-1" d="M435,197.16v-58.85h34.13l-1.22,8.35h-21.38v17.63h18.59v8.35h-18.59v24.53h-11.52Z"/><path class="cls-1" d="M505.26,197.16l-3.75-13.63h-19.99l-3.75,13.63h-11.96l18.76-58.85h14.23l18.68,58.85h-12.22ZM483.79,175.02h15.36l-7.68-28.11-7.68,28.11Z"/><path class="cls-1" d="M563.78,170.33c2.53,2.16,3.8,5.45,3.8,9.88,0,6.13-2.21,10.49-6.63,13.07-4.42,2.58-10.62,3.88-18.59,3.88h-18.15v-58.85h15.8c16.64,0,24.96,5,24.96,14.99,0,3.46-1.08,6.29-3.23,8.47s-4.8,3.59-7.94,4.22c4.13.74,7.46,2.19,9.99,4.34ZM535.72,146.57v15.93h7.07c3.2,0,5.73-.69,7.59-2.09,1.86-1.39,2.79-3.45,2.79-6.18s-.98-4.83-2.93-5.96c-1.95-1.14-4.99-1.7-9.12-1.7h-5.41ZM552.17,186.86c2.24-1.25,3.36-3.6,3.36-7.07s-1.06-5.76-3.19-7.24c-2.13-1.48-5.02-2.21-8.68-2.21h-7.94v18.4h6.72c4.25,0,7.49-.62,9.73-1.87Z"/><path class="cls-1" d="M596.55,173.57h-7.33v23.59h-11.52v-58.85h17.98c15.94,0,23.91,5.76,23.91,17.29,0,3.92-.99,7.15-2.97,9.71-1.98,2.56-5.06,4.63-9.25,6.22l15.8,25.64h-13.27l-13.35-23.59ZM589.22,165.48h7.16c3.66,0,6.44-.78,8.34-2.34,1.89-1.56,2.83-4.07,2.83-7.54,0-3.18-.97-5.49-2.92-6.94s-5.02-2.17-9.21-2.17h-6.2v18.99Z"/><path class="cls-1" d="M642.55,138.31v58.85h-11.52v-58.85h11.52Z"/><path class="cls-1" d="M694,144.53c5.61,4.15,8.42,11.78,8.42,22.91s-2.76,18.58-8.29,23.04c-5.53,4.46-12.54,6.69-21.03,6.69h-16.41v-58.85h14.84c9.37,0,16.86,2.07,22.48,6.22ZM668.21,146.74v41.99h5.67c5.12,0,9.14-1.55,12.04-4.64,2.91-3.09,4.36-8.65,4.36-16.65,0-5.56-.74-9.86-2.22-12.9-1.49-3.04-3.43-5.1-5.85-6.18-2.42-1.08-5.31-1.62-8.68-1.62h-5.32Z"/><path class="cls-1" d="M748.24,138.31l-1.22,8.35h-22.25v16.44h19.38v8.35h-19.38v17.29h23.83v8.43h-35.35v-58.85h35Z"/><path class="cls-1" d="M802,138.31l-17.89,58.85h-13.7l-18.42-58.85h12.4l13.09,48.89,12.74-48.89h11.78Z"/><path class="cls-1" d="M458.64,290.28c2.2.85,4.26,2.14,6.17,3.88l-3.97,4.54c-1.51-1.25-3.02-2.16-4.55-2.73s-3.17-.85-4.92-.85c-1.96,0-3.53.43-4.74,1.3-1.2.87-1.8,2.09-1.8,3.67,0,1.05.23,1.92.7,2.61.47.69,1.31,1.33,2.54,1.94,1.22.61,3.03,1.27,5.44,2,4.15,1.29,7.28,2.9,9.38,4.82,2.1,1.92,3.15,4.72,3.15,8.39,0,2.51-.64,4.73-1.92,6.67s-3.13,3.45-5.53,4.54c-2.4,1.09-5.25,1.64-8.55,1.64s-6.1-.52-8.65-1.55c-2.55-1.03-4.74-2.43-6.57-4.21l4.15-4.61c1.63,1.37,3.32,2.41,5.07,3.12,1.75.71,3.69,1.06,5.8,1.06,2.32,0,4.19-.55,5.62-1.64s2.14-2.63,2.14-4.61c0-1.21-.24-2.21-.73-3-.49-.79-1.32-1.49-2.51-2.12-1.18-.63-2.89-1.28-5.13-1.97-4.48-1.37-7.72-3.03-9.71-4.97-2-1.94-2.99-4.48-2.99-7.63,0-2.3.61-4.32,1.83-6.06,1.22-1.74,2.92-3.09,5.1-4.06s4.65-1.45,7.42-1.45c2.97,0,5.56.42,7.76,1.27Z"/><path class="cls-1" d="M498.96,291.56c2.77,1.7,4.9,4.18,6.38,7.45,1.49,3.27,2.23,7.21,2.23,11.82s-.75,8.48-2.26,11.76c-1.51,3.27-3.65,5.78-6.41,7.51-2.77,1.74-6.03,2.61-9.78,2.61s-7.07-.85-9.84-2.55-4.91-4.18-6.41-7.45c-1.51-3.27-2.26-7.21-2.26-11.82s.75-8.43,2.26-11.73c1.5-3.29,3.65-5.81,6.44-7.54,2.79-1.74,6.06-2.61,9.81-2.61s7.07.85,9.84,2.55ZM481.67,298.92c-1.71,2.52-2.57,6.51-2.57,11.97,0,10.46,3.34,15.69,10.02,15.69,3.26,0,5.73-1.25,7.42-3.76,1.69-2.51,2.53-6.5,2.53-12s-.85-9.43-2.53-11.94c-1.69-2.5-4.16-3.76-7.42-3.76s-5.74,1.26-7.45,3.79Z"/><path class="cls-1" d="M523.21,289.92v35.33h16.92l-.92,6.54h-24.07v-41.87h8.07Z"/><path class="cls-1" d="M575.33,318.1c0,2.83-.6,5.34-1.8,7.54-1.2,2.2-2.99,3.93-5.38,5.18-2.38,1.25-5.25,1.88-8.58,1.88-5.05,0-8.92-1.32-11.61-3.97-2.69-2.65-4.03-6.19-4.03-10.63v-28.18h8.06v27.75c0,2.95.62,5.15,1.86,6.6,1.24,1.45,3.15,2.18,5.71,2.18s4.53-.73,5.77-2.18c1.24-1.45,1.86-3.66,1.86-6.6v-27.75h8.13v28.18Z"/><path class="cls-1" d="M611.74,289.92l-.86,6.36h-11v35.51h-8.13v-35.51h-11.36v-6.36h31.34Z"/><path class="cls-1" d="M625.06,289.92v41.87h-8.07v-41.87h8.07Z"/><path class="cls-1" d="M660.98,291.56c2.77,1.7,4.9,4.18,6.38,7.45,1.49,3.27,2.23,7.21,2.23,11.82s-.75,8.48-2.26,11.76c-1.51,3.27-3.65,5.78-6.41,7.51-2.77,1.74-6.03,2.61-9.78,2.61s-7.07-.85-9.84-2.55-4.91-4.18-6.41-7.45c-1.51-3.27-2.26-7.21-2.26-11.82s.75-8.43,2.26-11.73c1.5-3.29,3.65-5.81,6.44-7.54,2.79-1.74,6.06-2.61,9.81-2.61s7.07.85,9.84,2.55ZM643.69,298.92c-1.71,2.52-2.57,6.51-2.57,11.97,0,10.46,3.34,15.69,10.02,15.69,3.26,0,5.73-1.25,7.42-3.76,1.69-2.51,2.53-6.5,2.53-12s-.85-9.43-2.53-11.94c-1.69-2.5-4.16-3.76-7.42-3.76s-5.74,1.26-7.45,3.79Z"/><path class="cls-1" d="M708.33,331.79h-10.45l-14.48-33.87c.37,2.99.64,5.7.82,8.12.18,2.42.27,5.31.27,8.67v17.09h-7.33v-41.87h10.2l14.72,33.93c-.24-1.62-.49-3.75-.73-6.39-.24-2.65-.37-5.28-.37-7.91v-19.63h7.33v41.87Z"/><path class="cls-1" d="M738.15,290.28c2.2.85,4.26,2.14,6.17,3.88l-3.97,4.54c-1.51-1.25-3.02-2.16-4.55-2.73s-3.17-.85-4.92-.85c-1.96,0-3.53.43-4.74,1.3-1.2.87-1.8,2.09-1.8,3.67,0,1.05.23,1.92.7,2.61.47.69,1.31,1.33,2.54,1.94,1.22.61,3.03,1.27,5.44,2,4.15,1.29,7.28,2.9,9.38,4.82,2.1,1.92,3.15,4.72,3.15,8.39,0,2.51-.64,4.73-1.92,6.67-1.28,1.94-3.13,3.45-5.53,4.54-2.4,1.09-5.25,1.64-8.55,1.64s-6.1-.52-8.65-1.55c-2.55-1.03-4.74-2.43-6.57-4.21l4.15-4.61c1.63,1.37,3.32,2.41,5.07,3.12,1.75.71,3.69,1.06,5.8,1.06,2.32,0,4.19-.55,5.62-1.64s2.14-2.63,2.14-4.61c0-1.21-.24-2.21-.73-3-.49-.79-1.32-1.49-2.51-2.12-1.18-.63-2.89-1.28-5.13-1.97-4.48-1.37-7.72-3.03-9.71-4.97-2-1.94-2.99-4.48-2.99-7.63,0-2.3.61-4.32,1.83-6.06,1.22-1.74,2.92-3.09,5.1-4.06s4.65-1.45,7.42-1.45c2.97,0,5.56.42,7.76,1.27Z"/></g></svg>